<svg width="127" height="198" viewBox="0 0 127 198" fill="none" xmlns="http://www.w3.org/2000/svg">
<path d="M3.01435 195C3.36958 167.171 10.2962 142.168 21.1702 124.072C32.372 105.43 47.4305 94.5751 63.5 94.5751C79.5695 94.5751 94.628 105.43 105.83 124.072C116.704 142.168 123.63 167.171 123.986 195H3.01435Z" fill="#4EAFDE" stroke="black" stroke-width="6"/>
<path d="M28.9733 34.35H98.0268C100.069 39.107 101.205 44.3696 101.205 49.9125C101.205 71.3313 84.2587 88.575 63.5001 88.575C42.7414 88.575 25.7949 71.3313 25.7949 49.9125C25.7949 44.3696 26.9308 39.107 28.9733 34.35Z" fill="#F1D9D9" stroke="black" stroke-width="6"/>
<path d="M116.417 44.9625C116.417 60.9335 88.0665 36.3541 60.0462 36.3541C32.026 36.3541 17.9103 52.325 17.9103 36.3541C17.9103 20.3831 32.026 0 60.0462 0C93.6218 2.5177e-05 116.417 28.9915 116.417 44.9625Z" fill="#121212"/>
<rect x="56.3589" y="92.5751" width="14.282" height="104.425" fill="#121212" stroke="black" stroke-width="2"/>
<ellipse cx="63.0929" cy="108.488" rx="2.84936" ry="3.71249" fill="white"/>
<ellipse cx="63.0929" cy="129.113" rx="2.84936" ry="3.71249" fill="white"/>
<ellipse cx="63.0929" cy="149.738" rx="2.84936" ry="3.7125" fill="white"/>
<rect x="78.9459" y="112.378" width="17.1622" height="21.45" rx="7" fill="black"/>
<path d="M3.01435 195C3.36958 167.171 10.2962 142.168 21.1702 124.072C32.372 105.43 47.4305 94.5751 63.5 94.5751C79.5695 94.5751 94.628 105.43 105.83 124.072C116.704 142.168 123.63 167.171 123.986 195H3.01435Z" fill="#333333" stroke="#F2F2F2" stroke-width="6"/>
<path d="M28.9733 34.35H98.0268C100.069 39.107 101.205 44.3696 101.205 49.9125C101.205 71.3313 84.2587 88.575 63.5001 88.575C42.7414 88.575 25.7949 71.3313 25.7949 49.9125C25.7949 44.3696 26.9308 39.107 28.9733 34.35Z" fill="#333333" stroke="#F2F2F2" stroke-width="6"/>
<path d="M113.417 44.9625C113.417 46.5919 113.045 47.0325 112.989 47.0903L112.989 47.0909C112.964 47.117 112.713 47.3766 111.606 47.3557C110.479 47.3345 108.917 47.0233 106.848 46.389C104.811 45.7645 102.473 44.8882 99.8333 43.8541C98.8806 43.4809 97.8913 43.0877 96.8688 42.6812C86.761 38.6633 73.4045 33.3541 60.0462 33.3541C47.7279 33.3541 37.9149 36.3479 31.0643 38.438C29.8295 38.8147 28.6909 39.1621 27.6513 39.4572C25.9242 39.9476 24.5742 40.2666 23.5021 40.3933C22.4051 40.5229 21.9117 40.4093 21.7273 40.3309C21.7246 40.3298 21.7215 40.3286 21.7182 40.3272C21.6644 40.3062 21.5298 40.2533 21.3534 39.8165C21.1208 39.2401 20.9103 38.1846 20.9103 36.3541C20.9103 22.0156 33.7071 3 60.0462 3C75.9391 3.00001 89.3275 9.85937 98.7744 18.6844C108.35 27.6299 113.417 38.1332 113.417 44.9625Z" fill="#333333" stroke="#F2F2F2" stroke-width="6"/>
<rect x="55.3589" y="91.5751" width="16.282" height="106.425" fill="#F2F2F2"/>
</svg>
