<svg width="272" height="261" viewBox="0 0 272 261" fill="none" xmlns="http://www.w3.org/2000/svg">
<rect x="192.641" y="187.404" width="134" height="129" transform="rotate(-145 192.641 187.404)" fill="#F4DDA2" stroke="black" stroke-width="7"/>
<mask id="path-2-inside-1" fill="white">
<path fill-rule="evenodd" clip-rule="evenodd" d="M145.104 261H55.1199L2.44379e-06 222.405L78.0064 111L193.507 191.874L145.104 261Z"/>
</mask>
<path fill-rule="evenodd" clip-rule="evenodd" d="M145.104 261H55.1199L2.44379e-06 222.405L78.0064 111L193.507 191.874L145.104 261Z" fill="#B7E3E3"/>
<path d="M55.1199 261L51.1048 266.734L52.9128 268H55.1199V261ZM145.104 261V268H148.748L150.839 265.015L145.104 261ZM2.44379e-06 222.405L-5.73406 218.39L-9.7491 224.124L-4.01503 228.139L2.44379e-06 222.405ZM78.0064 111L82.0214 105.266L76.2874 101.251L72.2723 106.985L78.0064 111ZM193.507 191.874L199.241 195.889L203.256 190.155L197.522 186.14L193.507 191.874ZM55.1199 268H145.104V254H55.1199V268ZM59.1349 255.266L4.01504 216.671L-4.01503 228.139L51.1048 266.734L59.1349 255.266ZM5.73407 226.42L83.7405 115.015L72.2723 106.985L-5.73406 218.39L5.73407 226.42ZM73.9914 116.734L189.492 197.608L197.522 186.14L82.0214 105.266L73.9914 116.734ZM187.773 187.859L139.37 256.985L150.839 265.015L199.241 195.889L187.773 187.859Z" fill="black" mask="url(#path-2-inside-1)"/>
<rect x="253.76" y="93.7129" width="126.668" height="13.6739" transform="rotate(-145 253.76 93.7129)" fill="#F3B56C"/>
<rect x="261.112" y="84.0129" width="120.747" height="12.2437" transform="rotate(125 261.112 84.0129)" fill="#F3B56C"/>
<path d="M184.165 193.64L141.5 254L136 254L130 254L175.088 187.284L184.165 193.64Z" fill="#7BB3B3"/>
</svg>
