<svg width="510" height="111" viewBox="0 0 510 111" fill="none" xmlns="http://www.w3.org/2000/svg">
<path d="M510 111H83V0H510V111Z" fill="#D13F3F"/>
<path d="M228.599 55.7637C228.599 60.3613 227.804 64.4004 226.214 67.8809C224.624 71.3398 222.347 74.0039 219.382 75.873C216.438 77.7207 213.044 78.6445 209.198 78.6445C205.396 78.6445 202.001 77.7207 199.015 75.873C196.05 74.0039 193.751 71.3506 192.118 67.9131C190.507 64.4756 189.69 60.5117 189.669 56.0215V53.3789C189.669 48.8027 190.475 44.7637 192.086 41.2617C193.719 37.7598 196.007 35.085 198.95 33.2373C201.915 31.3682 205.31 30.4336 209.134 30.4336C212.958 30.4336 216.342 31.3574 219.285 33.2051C222.25 35.0312 224.538 37.6738 226.149 41.1328C227.761 44.5703 228.577 48.5771 228.599 53.1533V55.7637ZM220.445 53.3145C220.445 48.1152 219.457 44.1299 217.48 41.3584C215.525 38.5869 212.743 37.2012 209.134 37.2012C205.61 37.2012 202.85 38.5869 200.852 41.3584C198.875 44.1084 197.865 48.0078 197.822 53.0566V55.7637C197.822 60.9199 198.821 64.9053 200.819 67.7197C202.839 70.5342 205.632 71.9414 209.198 71.9414C212.808 71.9414 215.579 70.5664 217.513 67.8164C219.468 65.0664 220.445 61.0488 220.445 55.7637V53.3145ZM238.718 78V48.9316H233.4V43.1309H238.718V39.9404C238.718 36.0732 239.792 33.0869 241.94 30.9814C244.089 28.876 247.097 27.8232 250.964 27.8232C252.339 27.8232 253.8 28.0166 255.347 28.4033L255.153 34.5264C254.294 34.3545 253.295 34.2686 252.156 34.2686C248.418 34.2686 246.549 36.1914 246.549 40.0371V43.1309H253.639V48.9316H246.549V78H238.718ZM273.941 78.6445C268.979 78.6445 264.95 77.0869 261.856 73.9717C258.784 70.835 257.248 66.667 257.248 61.4678V60.501C257.248 57.0205 257.914 53.916 259.246 51.1875C260.6 48.4375 262.49 46.2998 264.918 44.7744C267.346 43.249 270.053 42.4863 273.039 42.4863C277.787 42.4863 281.45 44.001 284.028 47.0303C286.628 50.0596 287.928 54.3457 287.928 59.8887V63.0469H265.144C265.38 65.9258 266.336 68.2031 268.012 69.8789C269.709 71.5547 271.836 72.3926 274.393 72.3926C277.98 72.3926 280.902 70.9424 283.158 68.042L287.38 72.0703C285.983 74.1543 284.114 75.7764 281.772 76.9365C279.452 78.0752 276.842 78.6445 273.941 78.6445ZM273.007 48.7705C270.858 48.7705 269.118 49.5225 267.786 51.0264C266.476 52.5303 265.638 54.625 265.272 57.3105H280.193V56.7305C280.021 54.1094 279.323 52.1328 278.099 50.8008C276.874 49.4473 275.177 48.7705 273.007 48.7705ZM312.291 50.2852C311.26 50.1133 310.196 50.0273 309.101 50.0273C305.513 50.0273 303.096 51.4023 301.85 54.1523V78H294.019V43.1309H301.495L301.688 47.0303C303.579 44.001 306.2 42.4863 309.552 42.4863C310.669 42.4863 311.593 42.6367 312.323 42.9375L312.291 50.2852ZM328.662 34.6553V43.1309H334.817V48.9316H328.662V68.3965C328.662 69.7285 328.92 70.6953 329.436 71.2969C329.973 71.877 330.918 72.167 332.271 72.167C333.174 72.167 334.087 72.0596 335.011 71.8447V77.9033C333.228 78.3975 331.509 78.6445 329.854 78.6445C323.839 78.6445 320.831 75.3252 320.831 68.6865V48.9316H315.095V43.1309H320.831V34.6553H328.662ZM361.662 78C361.318 77.334 361.018 76.249 360.76 74.7451C358.268 77.3447 355.217 78.6445 351.607 78.6445C348.105 78.6445 345.248 77.6455 343.035 75.6475C340.822 73.6494 339.716 71.1787 339.716 68.2354C339.716 64.5186 341.091 61.6719 343.841 59.6953C346.612 57.6973 350.565 56.6982 355.7 56.6982H360.502V54.4102C360.502 52.6055 359.997 51.166 358.987 50.0918C357.978 48.9961 356.441 48.4482 354.379 48.4482C352.596 48.4482 351.135 48.8994 349.996 49.8018C348.857 50.6826 348.288 51.8105 348.288 53.1855H340.457C340.457 51.2734 341.091 49.4902 342.358 47.8359C343.626 46.1602 345.345 44.8496 347.515 43.9043C349.706 42.959 352.145 42.4863 354.83 42.4863C358.912 42.4863 362.167 43.5176 364.595 45.5801C367.022 47.6211 368.269 50.5 368.333 54.2168V69.9434C368.333 73.0801 368.773 75.583 369.654 77.4521V78H361.662ZM353.058 72.3604C354.604 72.3604 356.055 71.9844 357.408 71.2324C358.783 70.4805 359.814 69.4707 360.502 68.2031V61.6289H356.28C353.38 61.6289 351.199 62.1338 349.738 63.1436C348.277 64.1533 347.547 65.582 347.547 67.4297C347.547 68.9336 348.041 70.1367 349.029 71.0391C350.039 71.9199 351.382 72.3604 353.058 72.3604ZM396.08 68.5254C396.08 67.1289 395.5 66.0654 394.34 65.335C393.201 64.6045 391.3 63.96 388.636 63.4014C385.972 62.8428 383.748 62.1338 381.965 61.2744C378.055 59.3838 376.1 56.6445 376.1 53.0566C376.1 50.0488 377.367 47.5352 379.902 45.5156C382.438 43.4961 385.66 42.4863 389.57 42.4863C393.738 42.4863 397.101 43.5176 399.657 45.5801C402.235 47.6426 403.524 50.3174 403.524 53.6045H395.693C395.693 52.1006 395.135 50.8545 394.018 49.8662C392.9 48.8564 391.418 48.3516 389.57 48.3516C387.852 48.3516 386.444 48.749 385.349 49.5439C384.274 50.3389 383.737 51.4023 383.737 52.7344C383.737 53.9375 384.242 54.8721 385.252 55.5381C386.262 56.2041 388.303 56.8809 391.375 57.5684C394.447 58.2344 396.854 59.04 398.594 59.9854C400.355 60.9092 401.655 62.0264 402.493 63.3369C403.353 64.6475 403.782 66.2373 403.782 68.1064C403.782 71.2432 402.482 73.7891 399.883 75.7441C397.283 77.6777 393.878 78.6445 389.667 78.6445C386.81 78.6445 384.264 78.1289 382.029 77.0977C379.795 76.0664 378.055 74.6484 376.809 72.8438C375.562 71.0391 374.939 69.0947 374.939 67.0107H382.545C382.652 68.8584 383.351 70.2871 384.64 71.2969C385.929 72.2852 387.637 72.7793 389.764 72.7793C391.826 72.7793 393.395 72.3926 394.469 71.6191C395.543 70.8242 396.08 69.793 396.08 68.5254Z" fill="white"/>
<path d="M0 56L83 0L83.25 111L0 56Z" fill="#D13F3F"/>
</svg>
