<svg width="618" height="658" viewBox="0 0 618 658" fill="none" xmlns="http://www.w3.org/2000/svg">
<g filter="url(#filter0_d)">
<path d="M616.5 325C616.5 503.755 480.53 648.5 313 648.5C145.47 648.5 9.5 503.755 9.5 325C9.5 146.245 145.47 1.5 313 1.5C480.53 1.5 616.5 146.245 616.5 325Z" fill="#283073" stroke="#877C7C" stroke-width="3"/>
<path d="M316 596.5C449.513 596.5 557.5 477.041 557.5 330C557.5 182.959 449.513 63.5 316 63.5C182.487 63.5 74.5 182.959 74.5 330C74.5 477.041 182.487 596.5 316 596.5Z" fill="white" stroke="#B71E1E" stroke-width="3"/>
<path d="M113.935 538.399C114.475 537.629 114.616 536.849 114.357 536.06C114.105 535.262 113.431 534.141 112.334 532.698C111.243 531.245 110.441 530.008 109.927 528.986C108.529 526.196 108.551 523.773 109.992 521.715C110.741 520.645 111.707 519.903 112.889 519.487C114.087 519.07 115.413 519.019 116.868 519.334C118.331 519.656 119.765 520.309 121.171 521.293C122.585 522.284 123.664 523.424 124.408 524.716C125.159 525.998 125.511 527.319 125.465 528.678C125.427 530.043 124.993 531.32 124.161 532.507L120.081 529.651C120.716 528.744 120.923 527.842 120.701 526.943C120.485 526.035 119.86 525.22 118.827 524.496C117.829 523.798 116.905 523.468 116.054 523.507C115.209 523.537 114.545 523.896 114.062 524.585C113.612 525.229 113.556 525.994 113.895 526.879C114.243 527.772 114.914 528.849 115.907 530.113C117.739 532.436 118.824 534.486 119.161 536.262C119.498 538.038 119.127 539.697 118.048 541.238C116.848 542.952 115.257 543.844 113.275 543.915C111.299 543.978 109.214 543.241 107.02 541.704C105.497 540.638 104.304 539.39 103.44 537.961C102.582 536.523 102.162 535.087 102.18 533.654C102.206 532.226 102.667 530.874 103.562 529.595L107.655 532.462C106.126 534.647 106.666 536.653 109.277 538.481C110.247 539.161 111.141 539.496 111.958 539.487C112.781 539.469 113.44 539.106 113.935 538.399ZM125.434 554.192C125.5 553.712 125.676 553.18 125.963 552.597C124.268 552.991 122.659 552.655 121.136 551.589C119.695 550.579 118.79 549.324 118.422 547.824C118.063 546.329 118.328 544.947 119.217 543.678C120.309 542.119 121.723 541.325 123.458 541.297C125.203 541.276 127.17 542.026 129.362 543.546L131.17 544.813L131.761 543.97C132.237 543.29 132.441 542.622 132.373 541.966C132.314 541.317 131.909 540.729 131.156 540.202C130.494 539.739 129.862 539.532 129.259 539.583C128.665 539.64 128.174 539.945 127.787 540.498L123.857 537.746C124.454 536.894 125.269 536.289 126.303 535.932C127.336 535.575 128.477 535.529 129.723 535.794C130.976 536.05 132.201 536.597 133.398 537.435C135.211 538.704 136.327 540.169 136.747 541.827C137.182 543.483 136.822 545.135 135.666 546.786L131.201 553.164C130.232 554.566 129.687 555.759 129.567 556.742L129.405 556.973L125.434 554.192ZM124.098 549.183C124.678 549.589 125.302 549.837 125.969 549.926C126.643 550.006 127.25 549.911 127.79 549.641L129.561 547.111L128.092 546.083C126.125 544.705 124.602 544.652 123.523 545.923L123.347 546.145C123.004 546.634 122.894 547.158 123.017 547.717C123.139 548.275 123.499 548.764 124.098 549.183ZM145.759 546.496L144.692 548.281C146.664 547.703 148.534 548.033 150.302 549.271C151.861 550.363 152.701 551.633 152.821 553.082C152.942 554.531 152.373 556.173 151.115 558.008L144.459 567.514L140.529 564.762L147.118 555.351C147.702 554.517 147.943 553.787 147.841 553.162C147.745 552.527 147.275 551.915 146.432 551.324C145.326 550.55 144.166 550.44 142.953 550.996L135.688 561.372L131.757 558.62L142.06 543.906L145.759 546.496ZM164.992 554.572L162.459 558.189L164.975 559.951L162.956 562.834L160.441 561.072L155.299 568.416C154.918 568.96 154.749 569.423 154.792 569.804C154.836 570.186 155.152 570.583 155.742 570.996C156.177 571.301 156.584 571.539 156.964 571.71L154.879 574.688C153.943 574.384 153.067 573.947 152.251 573.376C149.495 571.446 149.064 569.07 150.959 566.249L156.51 558.32L154.362 556.816L156.38 553.933L158.529 555.437L161.062 551.82L164.992 554.572ZM161.009 579.103L157.066 576.341L167.369 561.627L171.312 564.388L161.009 579.103ZM169.804 557.657C170.216 557.068 170.751 556.719 171.407 556.611C172.073 556.51 172.746 556.697 173.426 557.173C174.096 557.643 174.498 558.208 174.63 558.868C174.763 559.528 174.622 560.153 174.21 560.742C173.791 561.341 173.244 561.687 172.569 561.783C171.904 561.884 171.24 561.703 170.578 561.24C169.917 560.776 169.515 560.211 169.374 559.545C169.241 558.885 169.385 558.255 169.804 557.657ZM172.786 587.349C172.852 586.868 173.029 586.337 173.315 585.754C171.621 586.148 170.012 585.812 168.489 584.745C167.047 583.736 166.143 582.481 165.775 580.98C165.416 579.486 165.681 578.104 166.569 576.835C167.661 575.275 169.075 574.482 170.81 574.454C172.555 574.432 174.523 575.182 176.714 576.703L178.523 577.969L179.113 577.126C179.589 576.446 179.793 575.778 179.726 575.123C179.667 574.474 179.261 573.886 178.509 573.359C177.847 572.895 177.214 572.689 176.611 572.74C176.017 572.797 175.527 573.102 175.14 573.655L171.209 570.903C171.806 570.051 172.621 569.446 173.655 569.089C174.689 568.732 175.829 568.686 177.076 568.951C178.329 569.207 179.554 569.753 180.75 570.591C182.564 571.861 183.68 573.325 184.099 574.983C184.534 576.639 184.174 578.292 183.019 579.942L178.553 586.32C177.584 587.723 177.04 588.915 176.919 589.898L176.757 590.129L172.786 587.349ZM171.45 582.34C172.03 582.746 172.654 582.993 173.321 583.082C173.995 583.162 174.602 583.067 175.142 582.797L176.914 580.268L175.445 579.239C173.478 577.862 171.954 577.808 170.875 579.079L170.7 579.301C170.357 579.791 170.247 580.315 170.369 580.873C170.491 581.432 170.852 581.921 171.45 582.34ZM183.848 583.968C185.429 581.71 187.236 580.267 189.271 579.638C191.315 579.016 193.248 579.342 195.07 580.618C196.684 581.748 197.552 583.181 197.676 584.915L198.81 583.642L202.373 586.137L192.413 600.362C191.511 601.649 190.433 602.563 189.177 603.102C187.93 603.648 186.602 603.798 185.192 603.554C183.782 603.31 182.365 602.69 180.942 601.693C179.863 600.938 178.964 599.984 178.244 598.831C177.518 597.688 177.13 596.592 177.08 595.544L180.497 594.369C180.708 596.152 181.511 597.532 182.908 598.509C183.95 599.24 184.958 599.527 185.932 599.371C186.9 599.224 187.742 598.638 188.459 597.614L189.012 596.825C187.388 597.215 185.837 596.892 184.359 595.858C182.591 594.62 181.641 592.928 181.509 590.781C181.392 588.633 182.134 586.416 183.734 584.131L183.848 583.968ZM187.578 587.005C186.645 588.338 186.179 589.573 186.181 590.709C186.189 591.836 186.66 592.726 187.594 593.38C188.79 594.218 189.961 594.369 191.107 593.833L195.439 587.646C195.542 586.38 195.008 585.338 193.839 584.519C192.896 583.859 191.883 583.723 190.799 584.113C189.725 584.509 188.651 585.473 187.578 587.005ZM199.737 595.053C200.759 593.594 201.951 592.489 203.313 591.741C204.675 590.992 206.101 590.673 207.591 590.784C209.09 590.901 210.537 591.448 211.933 592.426C213.919 593.816 215.112 595.557 215.512 597.648C215.922 599.745 215.469 601.887 214.154 604.074L213.477 605.099C211.896 607.357 209.996 608.729 207.777 609.215C205.565 609.693 203.398 609.189 201.276 607.703C199.155 606.218 197.936 604.351 197.619 602.102C197.311 599.86 197.976 597.569 199.613 595.23L199.737 595.053ZM203.467 598.091C202.49 599.487 202.004 600.741 202.009 601.852C202.021 602.955 202.516 603.849 203.495 604.535C204.447 605.201 205.444 605.359 206.487 605.008C207.536 604.649 208.623 603.666 209.746 602.062C210.705 600.693 211.18 599.445 211.172 598.318C211.164 597.191 210.675 596.287 209.705 595.608C208.744 594.935 207.737 594.791 206.684 595.175C205.638 595.55 204.566 596.522 203.467 598.091ZM208.395 619.68L207.093 617.167L208.202 616.626C209.584 615.945 210.668 615.063 211.454 613.979L213.587 610.932L216.905 613.256L214.987 615.966C214.274 616.966 213.309 617.804 212.093 618.479C210.877 619.154 209.644 619.555 208.395 619.68Z" fill="white"/>
<path d="M288.707 115H283.062V93.2422L276.324 95.332V90.7422L288.102 86.5234H288.707V115ZM311.168 103.633C309.697 105.078 307.978 105.801 306.012 105.801C303.499 105.801 301.487 104.941 299.977 103.223C298.466 101.491 297.711 99.1602 297.711 96.2305C297.711 94.3685 298.115 92.6628 298.922 91.1133C299.742 89.5508 300.882 88.3398 302.34 87.4805C303.798 86.6081 305.439 86.1719 307.262 86.1719C309.137 86.1719 310.803 86.6406 312.262 87.5781C313.72 88.5156 314.853 89.8633 315.66 91.6211C316.467 93.3789 316.878 95.3906 316.891 97.6562V99.7461C316.891 104.486 315.712 108.21 313.355 110.918C310.999 113.626 307.659 115.072 303.336 115.254L301.949 115.273V110.566L303.199 110.547C308.108 110.326 310.764 108.021 311.168 103.633ZM307.398 101.484C308.31 101.484 309.091 101.25 309.742 100.781C310.406 100.312 310.908 99.7461 311.246 99.082V96.7578C311.246 94.8438 310.882 93.3594 310.152 92.3047C309.423 91.25 308.447 90.7227 307.223 90.7227C306.09 90.7227 305.159 91.2435 304.43 92.2852C303.701 93.3138 303.336 94.6094 303.336 96.1719C303.336 97.7214 303.688 98.9974 304.391 100C305.107 100.99 306.109 101.484 307.398 101.484ZM340.27 89.7266L329.273 115H323.316L334.332 91.1328H320.191V86.5625H340.27V89.7266ZM360.602 104.297H363.824V108.848H360.602V115H354.957V108.848H343.297L343.043 105.293L354.898 86.5625H360.602V104.297ZM348.668 104.297H354.957V94.2578L354.586 94.9023L348.668 104.297Z" fill="black"/>
<path d="M326.163 132C326.897 132 327.63 132.001 328.362 132.004C330.995 155.029 362.481 173.21 400.935 173.21C421.016 173.21 439.196 168.253 452.36 160.237C466.148 169.438 477.769 181.401 486.474 196.831C481.751 203.013 479.076 210.061 479.076 217.542C479.076 231.768 488.748 244.428 503.785 252.54C503.928 254.818 504 257.097 504 259.376C504 375.514 409.692 486.031 326.163 518.5C227.814 487.905 149 388.002 149 259.376C149 255.493 149.118 251.681 149.351 247.941C155.258 246.953 160.181 242.328 162.459 236.037C162.972 235.195 163.368 234.266 163.624 233.277C165.473 229.3 166.514 224.802 166.514 220.04C166.514 214.086 164.887 208.547 162.09 203.921C161.438 202.522 160.689 201.153 159.848 199.819C166.755 182.523 176.713 169.623 189.008 160.007C202.323 168.158 220.827 173.21 241.286 173.21C280.077 173.21 311.842 155.048 314.528 132.04C318.387 132.01 322.267 132 326.163 132Z" fill="#AB7F3C"/>
<rect x="186" y="218" width="280" height="17" fill="#283073"/>
<rect x="186" y="240" width="280" height="17" fill="#B71E1E"/>
<rect x="186" y="262" width="280" height="17" fill="#25672C"/>
<rect x="186" y="235" width="280" height="5" fill="white"/>
<rect x="186" y="257" width="280" height="5" fill="white"/>
<path d="M193.93 218H188.07V189.562H193.93V218Z" fill="black"/>
<path d="M334.398 185.424H322.421V218H314.364V185.424H302.548V178.898H334.398V185.424Z" fill="black"/>
<path d="M426.676 189.562L433.98 210.188L441.246 189.562H448.941V218H443.062V210.227L443.648 196.809L435.973 218H431.949L424.293 196.828L424.879 210.227V218H419.02V189.562H426.676Z" fill="black"/>
<rect x="281" y="340" width="89" height="73" fill="white" stroke="black" stroke-width="2"/>
<line x1="326" y1="414" x2="326" y2="339" stroke="black" stroke-width="2"/>
<path d="M165.932 484.157C166.46 483.481 166.625 482.778 166.427 482.047C166.236 481.309 165.676 480.256 164.746 478.889C163.822 477.515 163.151 476.35 162.731 475.395C161.592 472.789 161.727 470.583 163.137 468.778C163.871 467.839 164.785 467.209 165.882 466.888C166.992 466.565 168.202 466.581 169.511 466.938C170.828 467.301 172.103 467.964 173.336 468.927C174.576 469.897 175.504 470.987 176.12 472.198C176.743 473.401 177 474.621 176.893 475.856C176.794 477.097 176.337 478.239 175.523 479.281L171.945 476.485C172.566 475.69 172.797 474.878 172.638 474.049C172.485 473.212 171.955 472.44 171.049 471.732C170.174 471.048 169.348 470.704 168.571 470.699C167.8 470.685 167.179 470.981 166.707 471.585C166.265 472.15 166.178 472.844 166.444 473.666C166.719 474.495 167.278 475.509 168.122 476.706C169.68 478.909 170.57 480.827 170.792 482.461C171.014 484.094 170.597 485.587 169.541 486.938C168.366 488.441 166.875 489.178 165.067 489.148C163.265 489.111 161.402 488.34 159.478 486.837C158.142 485.793 157.115 484.6 156.396 483.258C155.684 481.907 155.37 480.58 155.454 479.275C155.547 477.977 156.031 476.768 156.907 475.646L160.497 478.451C159 480.368 159.396 482.221 161.686 484.01C162.537 484.675 163.335 485.022 164.079 485.053C164.83 485.076 165.447 484.777 165.932 484.157ZM175.648 499.086C175.731 498.651 175.917 498.176 176.206 497.659C174.644 497.937 173.195 497.554 171.859 496.51C170.595 495.522 169.831 494.336 169.567 492.952C169.312 491.575 169.619 490.329 170.489 489.216C171.557 487.848 172.882 487.193 174.464 487.25C176.053 487.314 177.809 488.091 179.732 489.58L181.318 490.819L181.896 490.08C182.362 489.483 182.58 488.885 182.549 488.285C182.527 487.691 182.185 487.136 181.525 486.621C180.945 486.167 180.379 485.949 179.827 485.966C179.284 485.99 178.823 486.244 178.444 486.729L174.997 484.036C175.581 483.289 176.352 482.777 177.31 482.501C178.268 482.225 179.309 482.238 180.431 482.539C181.56 482.831 182.649 483.388 183.699 484.208C185.289 485.45 186.236 486.837 186.538 488.367C186.856 489.895 186.449 491.383 185.318 492.83L180.947 498.424C179.999 499.655 179.446 500.715 179.289 501.604L179.13 501.807L175.648 499.086ZM174.67 494.461C175.179 494.859 175.735 495.114 176.338 495.227C176.948 495.332 177.505 495.274 178.01 495.054L179.743 492.835L178.455 491.829C176.73 490.481 175.345 490.359 174.302 491.465L174.132 491.659C173.796 492.088 173.671 492.56 173.756 493.074C173.84 493.589 174.145 494.051 174.67 494.461ZM197.844 506.228C196.228 508.295 194.526 509.564 192.736 510.036C190.953 510.499 189.27 510.113 187.687 508.876C186.288 507.783 185.59 506.373 185.594 504.648L184.367 505.898L181.266 503.475L195.58 485.154L199.027 487.847L193.892 494.419C195.414 494.11 196.823 494.462 198.119 495.475C199.694 496.705 200.473 498.248 200.456 500.105C200.454 501.96 199.633 503.937 197.993 506.037L197.844 506.228ZM194.592 503.284C195.611 501.98 196.147 500.868 196.199 499.948C196.258 499.021 195.878 498.237 195.059 497.597C193.961 496.74 192.855 496.599 191.739 497.175L187.76 502.268C187.473 503.504 187.883 504.553 188.988 505.417C190.101 506.287 191.261 506.31 192.469 505.486C193.046 505.091 193.754 504.357 194.592 503.284ZM200.784 519.109C198.891 517.63 197.802 515.844 197.517 513.752C197.239 511.665 197.855 509.655 199.364 507.723L199.625 507.389C200.638 506.093 201.793 505.132 203.089 504.505C204.391 503.871 205.714 503.636 207.057 503.802C208.414 503.966 209.681 504.508 210.858 505.427C212.624 506.807 213.576 508.447 213.717 510.35C213.865 512.258 213.14 514.234 211.544 516.278L210.444 517.685L202.226 511.265C201.678 512.194 201.484 513.131 201.643 514.075C201.81 515.025 202.323 515.836 203.182 516.507C204.51 517.544 205.924 517.874 207.423 517.496L207.635 520.716C206.546 521.043 205.399 521.069 204.194 520.793C202.994 520.509 201.858 519.948 200.784 519.109ZM208.666 508.209C207.982 507.675 207.245 507.471 206.455 507.596C205.674 507.728 204.888 508.177 204.097 508.943L208.892 512.689L209.107 512.415C209.687 511.639 209.94 510.889 209.866 510.165C209.797 509.433 209.397 508.781 208.666 508.209ZM223.056 520.547C222.637 520.117 222.248 519.762 221.89 519.483C220.586 518.464 219.387 518.237 218.292 518.803L211.694 527.248L208.246 524.555L218.33 511.649L221.586 514.193L220.479 515.806C222.097 515.162 223.518 515.318 224.742 516.275C225.124 516.573 225.442 516.904 225.695 517.269L223.056 520.547Z" fill="#08126C"/>
<path d="M244.877 537.611L237.73 532.97L239.651 530.012L246.798 534.654L244.877 537.611Z" fill="#283073"/>
<path d="M244.877 537.611L244.605 538.031L245.024 538.303L245.296 537.884L244.877 537.611ZM237.73 532.97L237.311 532.698L237.038 533.117L237.458 533.389L237.73 532.97ZM239.651 530.012L239.923 529.593L239.504 529.32L239.231 529.74L239.651 530.012ZM246.798 534.654L247.217 534.926L247.49 534.506L247.07 534.234L246.798 534.654ZM245.149 537.192L238.002 532.551L237.458 533.389L244.605 538.031L245.149 537.192ZM238.149 533.242L240.07 530.284L239.231 529.74L237.311 532.698L238.149 533.242ZM239.378 530.431L246.526 535.073L247.07 534.234L239.923 529.593L239.378 530.431ZM246.379 534.381L244.458 537.339L245.296 537.884L247.217 534.926L246.379 534.381Z" fill="black"/>
<path d="M407.54 534.306L401.108 539.897L398.795 537.235L405.226 531.644L407.54 534.306Z" fill="#25672C"/>
<path d="M407.54 534.306L407.868 534.684L408.245 534.355L407.917 533.978L407.54 534.306ZM401.108 539.897L400.731 540.225L401.059 540.602L401.436 540.274L401.108 539.897ZM398.795 537.235L398.467 536.858L398.089 537.186L398.417 537.563L398.795 537.235ZM405.226 531.644L405.604 531.316L405.276 530.939L404.898 531.267L405.226 531.644ZM407.212 533.929L400.78 539.52L401.436 540.274L407.868 534.684L407.212 533.929ZM401.486 539.569L399.172 536.907L398.417 537.563L400.731 540.225L401.486 539.569ZM399.123 537.613L405.554 532.022L404.898 531.267L398.467 536.858L399.123 537.613ZM404.849 531.972L407.163 534.634L407.917 533.978L405.604 531.316L404.849 531.972Z" fill="black"/>
<path d="M289.221 551.536L294.216 534.961H299.272L291.598 557H286.86L279.216 534.961H284.256L289.221 551.536ZM309.868 557C309.666 556.606 309.52 556.117 309.429 555.532C308.369 556.712 306.992 557.303 305.296 557.303C303.692 557.303 302.36 556.839 301.3 555.91C300.251 554.982 299.726 553.811 299.726 552.398C299.726 550.663 300.367 549.331 301.648 548.402C302.94 547.474 304.802 547.005 307.234 546.995H309.247V546.056C309.247 545.299 309.05 544.694 308.657 544.24C308.273 543.786 307.663 543.559 306.825 543.559C306.089 543.559 305.508 543.735 305.084 544.088C304.671 544.442 304.464 544.926 304.464 545.542H300.089C300.089 544.593 300.382 543.715 300.967 542.908C301.553 542.1 302.38 541.47 303.45 541.016C304.519 540.551 305.72 540.319 307.052 540.319C309.07 540.319 310.67 540.829 311.851 541.848C313.041 542.857 313.637 544.28 313.637 546.117V553.216C313.647 554.77 313.864 555.945 314.288 556.743V557H309.868ZM306.25 553.958C306.896 553.958 307.491 553.816 308.036 553.534C308.581 553.241 308.985 552.853 309.247 552.368V549.553H307.612C305.423 549.553 304.257 550.31 304.116 551.823L304.101 552.081C304.101 552.625 304.292 553.075 304.676 553.428C305.059 553.781 305.584 553.958 306.25 553.958ZM321.614 557H317.224V533.75H321.614V557ZM324.55 548.66C324.55 547.035 324.863 545.587 325.489 544.315C326.114 543.044 327.013 542.06 328.183 541.364C329.364 540.667 330.731 540.319 332.285 540.319C334.495 540.319 336.296 540.995 337.689 542.348C339.092 543.7 339.874 545.536 340.035 547.857L340.065 548.978C340.065 551.49 339.364 553.508 337.961 555.032C336.559 556.546 334.677 557.303 332.315 557.303C329.954 557.303 328.067 556.546 326.654 555.032C325.252 553.519 324.55 551.46 324.55 548.856V548.66ZM328.925 548.978C328.925 550.532 329.217 551.722 329.803 552.55C330.388 553.367 331.226 553.776 332.315 553.776C333.375 553.776 334.202 553.372 334.798 552.565C335.393 551.748 335.691 550.446 335.691 548.66C335.691 547.136 335.393 545.955 334.798 545.118C334.202 544.28 333.365 543.861 332.285 543.861C331.215 543.861 330.388 544.28 329.803 545.118C329.217 545.945 328.925 547.232 328.925 548.978ZM351.963 544.724C351.368 544.643 350.843 544.603 350.389 544.603C348.734 544.603 347.649 545.163 347.134 546.283V557H342.76V540.622H346.892L347.013 542.575C347.891 541.071 349.107 540.319 350.661 540.319C351.146 540.319 351.6 540.385 352.023 540.516L351.963 544.724ZM363.119 557C362.917 556.606 362.771 556.117 362.68 555.532C361.62 556.712 360.243 557.303 358.547 557.303C356.943 557.303 355.611 556.839 354.551 555.91C353.502 554.982 352.977 553.811 352.977 552.398C352.977 550.663 353.618 549.331 354.899 548.402C356.191 547.474 358.053 547.005 360.485 546.995H362.498V546.056C362.498 545.299 362.301 544.694 361.908 544.24C361.524 543.786 360.914 543.559 360.076 543.559C359.34 543.559 358.759 543.735 358.335 544.088C357.922 544.442 357.715 544.926 357.715 545.542H353.34C353.34 544.593 353.633 543.715 354.218 542.908C354.804 542.1 355.631 541.47 356.701 541.016C357.77 540.551 358.971 540.319 360.303 540.319C362.321 540.319 363.921 540.829 365.102 541.848C366.292 542.857 366.888 544.28 366.888 546.117V553.216C366.898 554.77 367.115 555.945 367.539 556.743V557H363.119ZM359.501 553.958C360.147 553.958 360.742 553.816 361.287 553.534C361.832 553.241 362.236 552.853 362.498 552.368V549.553H360.863C358.674 549.553 357.508 550.31 357.367 551.823L357.352 552.081C357.352 552.625 357.543 553.075 357.927 553.428C358.31 553.781 358.835 553.958 359.501 553.958ZM379.451 544.724C378.856 544.643 378.331 544.603 377.877 544.603C376.222 544.603 375.137 545.163 374.623 546.283V557H370.248V540.622H374.38L374.501 542.575C375.379 541.071 376.595 540.319 378.149 540.319C378.634 540.319 379.088 540.385 379.512 540.516L379.451 544.724Z" fill="#B71E1E"/>
<path d="M427.994 513.284L421.829 519.449L426.003 523.623L433.239 516.388L435.818 518.967L425.372 529.414L409.788 513.83L420.213 503.405L422.814 506.006L415.6 513.22L419.314 516.934L425.479 510.769L427.994 513.284ZM428.818 502.805L430.21 504.004C430.024 502.177 430.631 500.565 432.029 499.166C433.52 497.675 435.133 497.24 436.867 497.86C436.503 495.87 437.074 494.121 438.58 492.616C439.835 491.36 441.138 490.793 442.486 490.914C443.828 491.028 445.233 491.82 446.703 493.29L454.099 500.686L450.995 503.79L443.61 496.405C442.954 495.748 442.347 495.399 441.791 495.356C441.227 495.306 440.62 495.606 439.971 496.255C439.043 497.182 438.844 498.267 439.372 499.509L447.335 507.451L444.242 510.544L436.867 503.169C436.196 502.498 435.579 502.145 435.015 502.11C434.452 502.074 433.852 502.374 433.217 503.009C432.34 503.886 432.068 504.885 432.404 506.006L440.592 514.194L437.499 517.287L425.918 505.706L428.818 502.805ZM461.228 482.191C463.012 483.975 464.035 485.812 464.3 487.703C464.564 489.58 464.007 491.207 462.63 492.584C461.46 493.754 460.107 494.293 458.573 494.2L464.032 499.659L460.939 502.752L444.905 486.718L447.774 483.85L449.015 484.877C448.865 483.229 449.393 481.802 450.599 480.596C452.026 479.169 453.664 478.587 455.512 478.851C457.36 479.115 459.212 480.175 461.067 482.03L461.228 482.191ZM457.91 485.059C456.832 483.982 455.808 483.343 454.838 483.143C453.875 482.936 453.029 483.197 452.301 483.925C451.331 484.895 451.035 485.933 451.413 487.039L456.154 491.781C457.296 492.166 458.352 491.874 459.322 490.903C460.8 489.426 460.329 487.478 457.91 485.059ZM466.665 470.76C466.187 471.124 465.787 471.466 465.466 471.787C464.296 472.957 463.925 474.121 464.353 475.276L471.931 482.854L468.838 485.948L457.257 474.367L460.179 471.445L461.645 472.74C461.203 471.056 461.531 469.664 462.63 468.566C462.972 468.223 463.34 467.948 463.732 467.741L466.665 470.76ZM482.174 473.039C480.476 474.738 478.571 475.601 476.458 475.63C474.353 475.651 472.434 474.795 470.7 473.061L470.4 472.761C469.237 471.598 468.424 470.335 467.96 468.972C467.489 467.602 467.418 466.261 467.746 464.948C468.074 463.621 468.766 462.429 469.822 461.373C471.406 459.789 473.151 459.043 475.056 459.136C476.969 459.222 478.842 460.181 480.676 462.015L481.939 463.278L474.564 470.653C475.42 471.309 476.326 471.616 477.283 471.573C478.246 471.523 479.113 471.113 479.883 470.342C481.075 469.151 481.575 467.788 481.382 466.254L484.604 466.436C484.796 467.556 484.682 468.698 484.261 469.861C483.833 471.017 483.137 472.076 482.174 473.039ZM472.316 463.888C471.703 464.502 471.41 465.208 471.439 466.007C471.474 466.799 471.824 467.634 472.488 468.512L476.79 464.209L476.544 463.963C475.845 463.292 475.131 462.95 474.403 462.936C473.668 462.914 472.973 463.232 472.316 463.888ZM479.755 451.868L481.189 453.11C480.982 451.248 481.575 449.621 482.966 448.229C484.193 447.002 485.467 446.449 486.787 446.57C488.107 446.692 489.491 447.462 490.94 448.882L498.422 456.364L495.328 459.457L487.922 452.05C487.265 451.394 486.648 451.062 486.07 451.055C485.485 451.041 484.86 451.365 484.197 452.029C483.326 452.899 483.045 453.923 483.351 455.101L491.518 463.267L488.425 466.361L476.844 454.78L479.755 451.868ZM494.419 448.615C492.613 446.809 491.579 444.968 491.315 443.092C491.058 441.208 491.632 439.563 493.038 438.158C494.165 437.03 495.517 436.52 497.094 436.627L491.186 430.719L494.29 427.615L510.73 444.055L507.937 446.849L506.556 445.768C506.749 447.501 506.239 448.975 505.025 450.188C503.663 451.551 502.032 452.111 500.134 451.868C498.236 451.612 496.331 450.527 494.419 448.615ZM497.737 445.746C498.821 446.831 499.842 447.473 500.798 447.673C501.754 447.873 502.592 447.612 503.313 446.891C504.269 445.935 504.54 444.858 504.126 443.659L499.556 439.089C498.364 438.668 497.294 438.932 496.345 439.881C494.854 441.372 495.318 443.327 497.737 445.746ZM518.672 436.541C516.974 438.24 515.069 439.103 512.957 439.132C510.852 439.153 508.932 438.297 507.198 436.563L506.899 436.263C505.735 435.1 504.922 433.837 504.458 432.474C503.987 431.104 503.916 429.763 504.244 428.45C504.572 427.122 505.265 425.931 506.321 424.875C507.905 423.291 509.649 422.545 511.554 422.638C513.467 422.723 515.34 423.683 517.174 425.517L518.437 426.78L511.062 434.154C511.918 434.811 512.825 435.118 513.781 435.075C514.744 435.025 515.611 434.615 516.382 433.844C517.573 432.652 518.073 431.29 517.88 429.755L521.102 429.937C521.294 431.058 521.18 432.199 520.759 433.362C520.331 434.518 519.635 435.578 518.672 436.541ZM508.814 427.39C508.201 428.004 507.908 428.71 507.937 429.509C507.972 430.301 508.322 431.136 508.986 432.014L513.288 427.711L513.042 427.465C512.343 426.794 511.629 426.452 510.902 426.437C510.167 426.416 509.471 426.734 508.814 427.39ZM522.814 414.61C522.336 414.974 521.937 415.317 521.616 415.638C520.445 416.808 520.074 417.971 520.502 419.127L528.08 426.705L524.987 429.798L513.406 418.217L516.328 415.295L517.794 416.59C517.352 414.906 517.68 413.515 518.779 412.416C519.122 412.074 519.489 411.799 519.882 411.592L522.814 414.61Z" fill="#25672C"/>
<path d="M380 326.823C380 327.494 379.93 328.159 379.792 328.816C379.21 326.519 377.424 324.331 374.637 322.318V316.973C378.087 319.991 380 323.322 380 326.823Z" fill="#0E1383"/>
<path d="M368.201 312.615C356.457 306.266 336.559 303.588 315.107 302.118C285.61 294.471 249.142 313.179 249.142 326.823C244.851 330.466 249.381 334.973 254.505 339.625C252.257 335.601 254.505 334.128 254.505 330.466C254.505 319.358 282.598 310.353 317.252 310.353C338.233 310.353 356.809 313.654 368.201 318.723V312.615Z" fill="#0E1383"/>
<path d="M365.307 308.073L375.174 309.322L368.201 318.882L358.958 315.276L365.307 308.073Z" fill="#0E1383"/>
<path d="M329.974 297.556L344.274 298.798L339.218 311.011L326.37 310.038L329.974 297.556Z" fill="#0E1383"/>
<path d="M290.817 294.897H304V309.25L290 311.966L290.817 294.897Z" fill="#0E1383"/>
<path d="M241.717 337.018C242.385 336.852 243.061 336.743 243.744 336.69C241.572 337.727 239.749 339.701 238.299 342.434L232.974 343.762C235.292 340.248 238.229 337.888 241.717 337.018Z" fill="#B71E1E"/>
<path d="M229.918 350C225.938 360.986 227.245 377.592 230.064 395.143C228.337 420.673 254.261 445.242 267.855 441.853C272.341 444.385 275.926 439.637 279.538 434.377C275.978 437.177 274.061 435.742 270.413 436.652C259.346 439.411 244.763 419.142 237.841 391.379C233.65 374.571 233.228 358.869 236.003 348.483L229.918 350Z" fill="#B71E1E"/>
<path d="M225.971 353.447L225.244 345.232L236.162 348.443L234.415 356.744L225.971 353.447Z" fill="#B71E1E"/>
<path d="M222.55 384.365L220.931 372.602L234.109 373.618L235.706 384.153L222.55 384.365Z" fill="#B71E1E"/>
<path d="M227.722 416.396L225.089 405.835L239.389 402.27L244.891 412.811L227.722 416.396Z" fill="#B71E1E"/>
<path d="M283.83 456.286C283.671 455.693 283.561 455.093 283.499 454.487C284.437 456.411 286.167 458.019 288.534 459.292L289.8 464.014C286.745 461.975 284.659 459.379 283.83 456.286Z" fill="#25672C"/>
<path d="M295.197 466.695C304.667 470.17 318.799 468.919 333.699 466.319C355.519 467.714 375.829 444.556 372.598 432.5C374.647 428.502 370.507 425.343 365.93 422.164C368.407 425.311 367.231 427.021 368.098 430.256C370.728 440.071 353.803 453.134 330.294 459.433C316.062 463.246 302.679 463.706 293.751 461.298L295.197 466.695Z" fill="#25672C"/>
<path d="M298.236 470.181L291.246 470.871L293.713 461.157L300.838 462.663L298.236 470.181Z" fill="#25672C"/>
<path d="M324.694 473.052L314.7 474.553L315.238 462.843L324.184 461.368L324.694 473.052Z" fill="#25672C"/>
<path d="M351.886 468.284L342.943 470.68L339.545 457.998L348.399 453.054L351.886 468.284Z" fill="#25672C"/>
<path d="M386.326 420.168C385.691 420.067 385.069 419.921 384.46 419.73C386.698 419.688 388.959 418.83 391.16 417.279L396.224 418.081C393.001 419.921 389.644 420.693 386.326 420.168Z" fill="#6C726D"/>
<path d="M401.03 414.457C408.282 407.604 412.914 394.779 416.566 380.741C426.916 362.282 413.031 335.234 400.103 333.186C397.103 329.788 392.357 332.122 387.41 334.83C391.459 333.94 392.618 335.655 396.087 336.204C406.612 337.871 412.186 357.896 408.537 380.931C406.329 394.877 401.246 406.729 395.243 413.541L401.03 414.457Z" fill="#6C726D"/>
<path d="M405.638 413.215L403.416 419.586L395.092 413.517L399.482 407.914L405.638 413.215Z" fill="#6C726D"/>
<path d="M419.323 391.308L416.641 400.626L405.601 395.432L407.876 387.038L419.323 391.308Z" fill="#6C726D"/>
<path d="M425.965 365.679L424.577 374.442L410.978 372.288L409.879 362.574L425.965 365.679Z" fill="#6C726D"/>
<g filter="url(#filter1_d)">
<path d="M118.81 118.875L114.586 121.515L101.777 101.016L106.001 98.3763L118.81 118.875ZM116.696 99.0144L117.923 100.695C118.161 98.6538 119.195 97.0613 121.026 95.9176C122.64 94.9088 124.138 94.6321 125.518 95.0874C126.899 95.5427 128.188 96.7078 129.386 98.5827L135.535 108.424L131.467 110.966L125.379 101.224C124.839 100.36 124.261 99.8533 123.646 99.7031C123.024 99.5435 122.276 99.7364 121.404 100.282C120.258 100.997 119.705 102.022 119.742 103.356L126.455 114.098L122.386 116.641L112.867 101.407L116.696 99.0144ZM144.253 97.1235C143.942 96.626 143.45 96.3919 142.776 96.4212C142.106 96.4352 141.157 96.6698 139.927 97.1248C135.829 98.6285 133.056 98.2211 131.607 95.9028C130.762 94.5512 130.617 93.0759 131.171 91.4769C131.728 89.8627 132.913 88.4896 134.724 87.3577C136.658 86.1495 138.486 85.6399 140.21 85.8289C141.942 86.0121 143.263 86.8311 144.172 88.2859L140.104 90.8284C139.74 90.2465 139.253 89.8851 138.643 89.7443C138.027 89.594 137.32 89.7682 136.523 90.2667C135.837 90.6949 135.404 91.1811 135.222 91.7254C135.04 92.2698 135.099 92.7813 135.398 93.26C135.679 93.7105 136.119 93.9446 136.718 93.9622C137.319 93.9646 138.192 93.7524 139.334 93.3254C140.471 92.8891 141.466 92.5807 142.319 92.4001C144.961 91.8454 146.889 92.5395 148.103 94.4824C148.971 95.8716 149.079 97.3703 148.427 98.9787C147.768 100.578 146.496 101.967 144.609 103.145C143.333 103.943 142.056 104.427 140.78 104.599C139.507 104.755 138.343 104.614 137.287 104.178C136.225 103.732 135.407 103.049 134.832 102.129L138.69 99.7186C139.179 100.418 139.792 100.804 140.53 100.878C141.268 100.952 142.055 100.728 142.89 100.206C143.669 99.7197 144.165 99.2076 144.377 98.6703C144.593 98.1178 144.552 97.6022 144.253 97.1235ZM146.484 75.1935L148.824 78.9385L151.429 77.311L153.294 80.2957L150.689 81.9233L155.44 89.5259C155.792 90.089 156.152 90.4252 156.52 90.5343C156.889 90.6435 157.378 90.5074 157.988 90.1262C158.439 89.8447 158.817 89.5626 159.123 89.2799L161.05 92.3631C160.405 93.1057 159.66 93.7409 158.815 94.2687C155.962 96.0517 153.606 95.52 151.75 92.6737L146.621 84.4657L144.396 85.8557L142.531 82.871L144.756 81.481L142.415 77.736L146.484 75.1935ZM167.509 88.4448L163.426 90.996L153.907 75.7626L157.99 73.2114L167.509 88.4448ZM151.204 71.9701C150.823 71.36 150.711 70.7318 150.868 70.0854C151.035 69.4331 151.47 68.887 152.174 68.4471C152.869 68.0131 153.546 67.8642 154.205 68.0004C154.864 68.1365 155.385 68.5096 155.766 69.1197C156.153 69.7392 156.258 70.378 156.082 71.0361C155.916 71.6884 155.49 72.2286 154.805 72.6567C154.119 73.0849 153.443 73.2338 152.774 73.1035C152.115 72.9674 151.591 72.5896 151.204 71.9701ZM163.886 64.3198L166.226 68.0648L168.831 66.4373L170.696 69.422L168.091 71.0496L172.842 78.6522C173.194 79.2153 173.554 79.5515 173.922 79.6606C174.29 79.7698 174.78 79.6337 175.39 79.2525C175.84 78.971 176.219 78.6889 176.525 78.4062L178.451 81.4894C177.806 82.232 177.061 82.8672 176.216 83.3951C173.363 85.178 171.008 84.6463 169.151 81.8L164.022 73.592L161.798 74.982L159.933 71.9973L162.157 70.6073L159.817 66.8623L163.886 64.3198ZM188.772 73.0048C188.53 74.8526 187.522 76.3307 185.748 77.4392C184.115 78.4597 182.573 78.7704 181.123 78.3714C179.682 77.9665 178.387 76.8642 177.236 75.0644L170.999 65.0825L175.067 62.54L181.217 72.3812C182.208 73.9674 183.426 74.3089 184.872 73.4057C186.252 72.5435 186.9 71.4725 186.818 70.1926L180.08 59.4081L184.162 56.8568L193.681 72.0902L189.852 74.4831L188.772 73.0048ZM189.763 48.1501L192.103 51.8951L194.708 50.2675L196.573 53.2522L193.968 54.8798L198.719 62.4824C199.071 63.0456 199.431 63.3817 199.799 63.4908C200.167 63.6 200.657 63.4639 201.267 63.0827C201.717 62.8012 202.096 62.5191 202.402 62.2364L204.329 65.3197C203.683 66.0622 202.938 66.6974 202.093 67.2253C199.24 69.0082 196.885 68.4766 195.028 65.6303L189.899 57.4223L187.675 58.8123L185.81 55.8275L188.034 54.4375L185.694 50.6925L189.763 48.1501ZM200.59 56.9868C199.646 55.4757 199.095 53.947 198.938 52.4007C198.781 50.8545 199.044 49.4174 199.728 48.0894C200.422 46.7556 201.491 45.637 202.937 44.7338C204.992 43.4494 207.061 43.0314 209.142 43.4797C211.232 43.9222 213.027 45.1759 214.526 47.2408L215.205 48.2651C216.666 50.6022 217.187 52.887 216.768 55.1195C216.343 57.3426 215.032 59.1404 212.836 60.5128C210.639 61.8852 208.444 62.278 206.251 61.6912C204.066 61.0986 202.217 59.5914 200.704 57.1699L200.59 56.9868ZM204.843 54.74C205.747 56.1855 206.711 57.1229 207.736 57.5524C208.756 57.9725 209.772 57.8658 210.786 57.2324C211.771 56.6166 212.306 55.7602 212.391 54.6633C212.47 53.557 211.99 52.1732 210.952 50.5119C210.066 49.0946 209.103 48.1695 208.063 47.7365C207.022 47.3035 206 47.4008 204.995 48.0283C204 48.65 203.474 49.5204 203.417 50.6396C203.353 51.7495 203.829 53.1163 204.843 54.74Z" fill="white"/>
</g>
<g filter="url(#filter2_d)">
<path d="M406.638 617.043L393.181 597.825L399.094 593.685C400.784 592.502 402.561 591.828 404.426 591.663C406.293 591.483 408.094 591.835 409.827 592.719C411.555 593.595 413.044 594.926 414.295 596.712L414.914 597.596C416.165 599.383 416.908 601.23 417.142 603.138C417.385 605.039 417.106 606.841 416.304 608.543C415.503 610.245 414.265 611.689 412.59 612.875L406.638 617.043ZM399.387 598.26L408.37 611.089L410.284 609.749C411.833 608.665 412.662 607.33 412.772 605.745C412.881 604.16 412.286 602.42 410.985 600.525L410.273 599.508C408.905 597.555 407.465 596.36 405.953 595.924C404.435 595.479 402.898 595.801 401.34 596.892L399.387 598.26ZM418.282 598.051C417.29 596.635 416.678 595.181 416.448 593.69C416.217 592.199 416.399 590.793 416.995 589.471C417.599 588.143 418.579 587.005 419.934 586.056C421.861 584.706 423.845 584.196 425.885 584.525C427.933 584.848 429.737 585.972 431.295 587.897L432.005 588.855C433.539 591.046 434.16 593.234 433.867 595.42C433.568 597.596 432.389 599.405 430.33 600.847C428.271 602.289 426.164 602.781 424.007 602.323C421.86 601.86 419.992 600.493 418.402 598.223L418.282 598.051ZM422.29 595.657C423.239 597.013 424.221 597.872 425.237 598.236C426.247 598.592 427.226 598.437 428.177 597.771C429.101 597.124 429.576 596.267 429.602 595.2C429.622 594.123 429.087 592.806 427.996 591.249C427.066 589.92 426.085 589.072 425.055 588.706C424.024 588.339 423.038 588.485 422.097 589.144C421.164 589.797 420.698 590.668 420.699 591.756C420.694 592.834 421.224 594.135 422.29 595.657ZM432.83 577.419L434.067 578.933C434.21 576.984 435.144 575.406 436.869 574.198C438.708 572.91 440.479 572.752 442.182 573.723C442.168 571.569 443.09 569.842 444.947 568.542C446.495 567.457 447.965 567.103 449.357 567.48C450.742 567.847 452.069 568.938 453.338 570.75L459.725 579.871L455.897 582.551L449.52 573.444C448.953 572.634 448.382 572.156 447.806 572.008C447.225 571.851 446.533 572.053 445.733 572.614C444.589 573.415 444.179 574.515 444.503 575.914L451.383 585.712L447.568 588.383L441.2 579.289C440.621 578.462 440.04 577.977 439.455 577.836C438.871 577.694 438.187 577.897 437.404 578.446C436.322 579.204 435.853 580.201 435.997 581.437L443.067 591.535L439.253 594.206L429.253 579.924L432.83 577.419ZM466.694 574.991L462.866 577.671L452.866 563.39L456.694 560.71L466.694 574.991ZM450.054 559.851C449.653 559.279 449.513 558.676 449.633 558.041C449.761 557.401 450.155 556.849 450.815 556.387C451.466 555.931 452.115 555.753 452.761 555.851C453.407 555.949 453.93 556.285 454.331 556.857C454.737 557.437 454.872 558.051 454.735 558.698C454.606 559.339 454.221 559.884 453.579 560.334C452.936 560.784 452.288 560.962 451.633 560.87C450.987 560.772 450.461 560.432 450.054 559.851ZM463.36 556.042L464.634 557.609C464.761 555.618 465.683 554.022 467.398 552.821C468.912 551.761 470.349 551.417 471.711 551.788C473.072 552.159 474.381 553.223 475.637 554.979L482.098 564.205L478.283 566.876L471.887 557.743C471.32 556.933 470.735 556.471 470.13 556.357C469.519 556.234 468.805 556.459 467.986 557.032C466.913 557.783 466.428 558.805 466.532 560.096L473.584 570.167L469.769 572.838L459.769 558.556L463.36 556.042ZM489.027 559.353L485.199 562.034L475.199 547.752L479.027 545.072L489.027 559.353ZM472.387 544.213C471.987 543.641 471.846 543.038 471.966 542.404C472.094 541.763 472.488 541.212 473.148 540.749C473.799 540.293 474.448 540.115 475.094 540.213C475.74 540.312 476.263 540.647 476.664 541.219C477.07 541.8 477.205 542.413 477.068 543.06C476.939 543.701 476.554 544.246 475.912 544.696C475.269 545.146 474.621 545.324 473.966 545.232C473.32 545.134 472.794 544.794 472.387 544.213ZM496.153 550.174C496.857 549.681 497.293 549.087 497.462 548.392C497.631 547.697 497.499 547.022 497.067 546.367L500.644 543.862C501.313 544.836 501.671 545.91 501.719 547.083C501.761 548.247 501.485 549.371 500.893 550.455C500.304 551.523 499.463 552.439 498.372 553.203C496.331 554.633 494.268 555.113 492.183 554.646C490.092 554.169 488.245 552.787 486.643 550.499L486.468 550.248C484.927 548.048 484.283 545.883 484.535 543.752C484.788 541.622 485.935 539.842 487.976 538.412C489.762 537.161 491.55 536.671 493.338 536.94C495.129 537.194 496.625 538.159 497.825 539.836L494.248 542.341C493.713 541.614 493.065 541.176 492.305 541.027C491.538 540.868 490.794 541.042 490.073 541.547C489.184 542.169 488.739 542.966 488.737 543.938C488.738 544.894 489.247 546.099 490.264 547.551L490.541 547.947C491.57 549.416 492.534 550.315 493.432 550.643C494.331 550.971 495.238 550.815 496.153 550.174ZM514.554 541.479C514.138 541.259 513.712 540.922 513.275 540.467C513.072 542.143 512.231 543.499 510.753 544.534C509.354 545.514 507.909 545.922 506.418 545.76C504.936 545.591 503.764 544.891 502.901 543.659C501.842 542.145 501.587 540.592 502.138 539C502.697 537.402 504.034 535.856 506.149 534.362L507.904 533.133L507.331 532.315C506.869 531.655 506.328 531.247 505.707 531.091C505.096 530.929 504.425 531.104 503.694 531.616C503.052 532.065 502.654 532.574 502.5 533.141C502.355 533.701 502.47 534.25 502.846 534.787L499.031 537.458C498.452 536.63 498.171 535.686 498.189 534.625C498.206 533.564 498.543 532.508 499.198 531.459C499.847 530.401 500.753 529.466 501.914 528.652C503.674 527.42 505.38 526.888 507.032 527.056C508.687 527.209 510.074 528.086 511.196 529.687L515.53 535.878C516.488 537.227 517.395 538.119 518.251 538.556L518.409 538.78L514.554 541.479ZM509.542 541.035C510.105 540.64 510.538 540.154 510.841 539.575C511.137 538.987 511.252 538.401 511.185 537.819L509.466 535.364L508.041 536.362C506.131 537.699 505.577 539.071 506.378 540.477L506.522 540.71C506.855 541.186 507.296 541.46 507.846 541.534C508.396 541.608 508.961 541.441 509.542 541.035ZM514.282 520.386L515.556 521.953C515.684 519.962 516.605 518.366 518.321 517.164C519.835 516.105 521.272 515.76 522.634 516.131C523.995 516.503 525.304 517.566 526.56 519.323L533.02 528.549L529.206 531.22L522.81 522.086C522.243 521.277 521.657 520.815 521.053 520.7C520.442 520.577 519.727 520.802 518.909 521.375C517.836 522.127 517.351 523.148 517.455 524.439L524.507 534.51L520.692 537.181L510.692 522.9L514.282 520.386ZM544.2 520.721C543.784 520.501 543.357 520.164 542.921 519.709C542.718 521.385 541.877 522.741 540.399 523.776C538.999 524.756 537.554 525.164 536.064 525.002C534.582 524.833 533.409 524.133 532.547 522.901C531.487 521.387 531.232 519.834 531.783 518.242C532.343 516.644 533.68 515.098 535.794 513.604L537.55 512.375L536.977 511.557C536.514 510.897 535.973 510.489 535.353 510.333C534.741 510.172 534.07 510.346 533.34 510.858C532.697 511.307 532.299 511.816 532.145 512.383C532 512.943 532.116 513.492 532.491 514.029L528.677 516.7C528.098 515.872 527.817 514.928 527.834 513.867C527.852 512.806 528.188 511.75 528.844 510.701C529.493 509.643 530.398 508.708 531.56 507.894C533.32 506.662 535.026 506.13 536.678 506.298C538.332 506.451 539.72 507.328 540.841 508.929L545.176 515.12C546.134 516.469 547.041 517.361 547.897 517.798L548.054 518.022L544.2 520.721ZM539.188 520.277C539.751 519.882 540.184 519.396 540.486 518.817C540.783 518.229 540.898 517.643 540.831 517.061L539.112 514.606L537.686 515.604C535.777 516.941 535.222 518.313 536.023 519.719L536.167 519.952C536.5 520.428 536.941 520.702 537.491 520.776C538.041 520.85 538.607 520.683 539.188 520.277Z" fill="white"/>
</g>
<g filter="url(#filter3_d)">
<path d="M251.026 28.184L243.623 28.0548L243.272 48.1894L238.292 48.1025L238.643 27.9679L231.34 27.8404L231.41 23.8068L251.097 24.1505L251.026 28.184ZM259.981 48.8132C257.347 48.7672 255.215 47.9219 253.583 46.2773C251.962 44.6329 251.176 42.4661 251.222 39.7771L251.231 39.3123C251.262 37.5086 251.639 35.9045 252.361 34.5003C253.083 33.0849 254.087 32.0066 255.373 31.2652C256.67 30.513 258.137 30.1512 259.775 30.1798C262.232 30.2227 264.149 31.031 265.528 32.6048C266.917 34.1787 267.587 36.3877 267.537 39.2317L267.503 41.1904L256.066 40.9907C256.201 42.1664 256.649 43.1152 257.411 43.8369C258.185 44.5588 259.169 44.9302 260.364 44.9511C262.212 44.9834 263.668 44.3391 264.731 43.0182L267.042 45.6986C266.305 46.7042 265.318 47.4839 264.079 48.0379C262.841 48.5808 261.475 48.8393 259.981 48.8132ZM259.691 34.0637C258.739 34.0471 257.959 34.3545 257.35 34.9859C256.752 35.6174 256.36 36.5294 256.173 37.7216L262.846 37.8381L262.853 37.4563C262.849 36.3936 262.576 35.5697 262.032 34.9846C261.489 34.3884 260.709 34.0814 259.691 34.0637ZM277.644 45.2527C278.529 45.2682 279.252 45.0373 279.814 44.56C280.376 44.0828 280.675 43.4404 280.711 42.633L285.21 42.7115C285.177 43.9286 284.826 45.0405 284.155 46.0472C283.485 47.0428 282.575 47.8128 281.425 48.3573C280.287 48.8909 279.031 49.1457 277.659 49.1217C275.092 49.0769 273.081 48.2282 271.626 46.5756C270.172 44.912 269.47 42.6416 269.52 39.7644L269.526 39.449C269.574 36.6825 270.349 34.4877 271.849 32.8646C273.35 31.2414 275.384 30.4522 277.951 30.4971C280.197 30.5363 281.984 31.2095 283.312 32.5167C284.651 33.8131 285.313 35.5238 285.298 37.6488L280.8 37.5703C280.794 36.6404 280.519 35.8829 279.976 35.2978C279.433 34.7016 278.708 34.3956 277.8 34.3798C276.683 34.3603 275.829 34.7549 275.239 35.5638C274.661 36.3617 274.355 37.6737 274.324 39.4996L274.315 39.9975C274.283 41.8456 274.542 43.1784 275.092 43.9961C275.642 44.8138 276.493 45.2326 277.644 45.2527ZM292.569 31.0843L292.682 33.1618C293.994 31.5796 295.729 30.8074 297.886 30.845C299.79 30.8782 301.196 31.4618 302.107 32.5957C303.017 33.7296 303.463 35.4089 303.447 37.6335L303.244 49.2363L298.447 49.1525L298.647 37.666C298.665 36.6479 298.457 35.9082 298.022 35.4467C297.587 34.9742 296.856 34.729 295.826 34.711C294.476 34.6875 293.454 35.2452 292.759 36.3843L292.538 49.0494L287.741 48.9656L288.054 31.0055L292.569 31.0843ZM306.308 40.1409C306.34 38.3593 306.71 36.7773 307.421 35.3949C308.131 34.0126 309.135 32.9508 310.432 32.2097C311.74 31.4687 313.246 31.1131 314.95 31.1429C317.374 31.1852 319.336 31.9611 320.837 33.4706C322.35 34.9803 323.172 37.0093 323.305 39.5575L323.316 40.7864C323.268 43.5419 322.461 45.7417 320.893 47.3858C319.326 49.0188 317.248 49.8128 314.658 49.7676C312.069 49.7224 310.014 48.8563 308.494 47.1694C306.985 45.4826 306.255 43.2117 306.305 40.3567L306.308 40.1409ZM311.1 40.5732C311.07 42.2774 311.368 43.5888 311.994 44.5074C312.62 45.4149 313.531 45.8791 314.726 45.9C315.888 45.9203 316.803 45.4935 317.471 44.6196C318.14 43.7346 318.491 42.3128 318.525 40.3541C318.555 38.6832 318.251 37.3827 317.614 36.4529C316.977 35.523 316.067 35.0477 314.882 35.027C313.709 35.0066 312.794 35.45 312.136 36.3573C311.478 37.2535 311.133 38.6588 311.1 40.5732ZM331.18 49.7239L326.366 49.6399L326.812 24.1437L331.625 24.2278L331.18 49.7239ZM334.56 40.634C334.591 38.8524 334.962 37.2704 335.672 35.8881C336.383 34.5057 337.386 33.444 338.683 32.7028C339.992 31.9619 341.498 31.6063 343.202 31.636C345.625 31.6783 347.588 32.4542 349.089 33.9637C350.601 35.4734 351.424 37.5024 351.556 40.0507L351.568 41.2796C351.52 44.035 350.712 46.2348 349.145 47.8789C347.578 49.512 345.499 50.3059 342.91 50.2607C340.32 50.2155 338.266 49.3494 336.745 47.6625C335.236 45.9757 334.506 43.7048 334.556 40.8498L334.56 40.634ZM339.351 41.0663C339.321 42.7705 339.619 44.0819 340.245 45.0005C340.872 45.9081 341.782 46.3723 342.977 46.3931C344.139 46.4134 345.054 45.9866 345.723 45.1127C346.391 44.2278 346.743 42.806 346.777 40.8473C346.806 39.1763 346.502 37.8759 345.865 36.946C345.229 36.0161 344.318 35.5408 343.134 35.5202C341.961 35.4997 341.046 35.9431 340.388 36.8504C339.73 37.7466 339.385 39.1519 339.351 41.0663ZM344.274 24.4485L349.502 24.5398L344.815 29.6053L340.914 29.5372L344.274 24.4485ZM353.831 41.0036C353.879 38.2482 354.571 36.0408 355.906 34.3816C357.252 32.7225 359.037 31.9124 361.262 31.9512C363.231 31.9856 364.752 32.6874 365.824 34.0566L366.053 32.367L370.402 32.4429L370.099 49.8055C370.071 51.3768 369.688 52.7372 368.948 53.8866C368.22 55.0362 367.203 55.904 365.897 56.49C364.592 57.076 363.071 57.3539 361.333 57.3235C360.017 57.3006 358.738 57.0126 357.496 56.4596C356.255 55.9176 355.321 55.2261 354.693 54.3849L356.869 51.5006C358.041 52.8605 359.479 53.5553 361.183 53.585C362.455 53.6072 363.452 53.2815 364.172 52.6077C364.892 51.9451 365.263 50.9885 365.285 49.738L365.302 48.7753C364.173 50.0064 362.707 50.6063 360.903 50.5748C358.745 50.5371 357.012 49.6656 355.702 47.9602C354.404 46.2439 353.779 43.9914 353.827 41.2028L353.831 41.0036ZM358.622 41.4359C358.594 43.0626 358.898 44.3464 359.534 45.2874C360.171 46.2173 361.06 46.6922 362.199 46.712C363.66 46.7375 364.715 46.208 365.365 45.1235L365.497 37.5709C364.874 36.4642 363.849 35.8984 362.422 35.8735C361.271 35.8534 360.355 36.3078 359.675 37.2369C359.006 38.1661 358.655 39.5658 358.622 41.4359ZM378.853 50.556L374.039 50.472L374.352 32.5118L379.166 32.5958L378.853 50.556ZM374.151 27.8592C374.164 27.1399 374.412 26.552 374.896 26.0955C375.391 25.6393 376.054 25.4184 376.884 25.4329C377.702 25.4471 378.351 25.6909 378.83 26.1642C379.309 26.6375 379.542 27.2338 379.529 27.953C379.517 28.6834 379.257 29.2766 378.751 29.7327C378.256 30.189 377.605 30.4101 376.797 30.396C375.989 30.3819 375.34 30.1381 374.85 29.6646C374.372 29.1913 374.139 28.5895 374.151 27.8592ZM390.351 47.22C391.236 47.2355 391.96 47.0046 392.522 46.5273C393.083 46.0501 393.383 45.4078 393.419 44.6003L397.917 44.6788C397.885 45.8959 397.533 47.0078 396.863 48.0145C396.192 49.0101 395.282 49.7801 394.132 50.3246C392.994 50.8582 391.739 51.113 390.367 51.0891C387.799 51.0442 385.788 50.1955 384.334 48.543C382.88 46.8793 382.178 44.6089 382.228 41.7317L382.233 41.4163C382.282 38.6498 383.056 36.455 384.557 34.8319C386.057 33.2087 388.091 32.4196 390.658 32.4644C392.905 32.5036 394.692 33.1768 396.02 34.484C397.358 35.7804 398.02 37.4911 398.005 39.6161L393.507 39.5376C393.501 38.6077 393.227 37.8502 392.683 37.2651C392.14 36.6689 391.415 36.3629 390.508 36.3471C389.39 36.3276 388.536 36.7222 387.947 37.5311C387.368 38.3291 387.063 39.641 387.031 41.4669L387.022 41.9649C386.99 43.8129 387.249 45.1457 387.799 45.9634C388.35 46.7811 389.2 47.2 390.351 47.22ZM399.96 41.7756C399.991 39.994 400.362 38.412 401.073 37.0296C401.783 35.6473 402.787 34.5855 404.084 33.8444C405.392 33.1034 406.898 32.7478 408.602 32.7776C411.025 32.8199 412.988 33.5958 414.489 35.1053C416.001 36.615 416.824 38.644 416.956 41.1922L416.968 42.4211C416.92 45.1766 416.112 47.3764 414.545 49.0205C412.978 50.6535 410.9 51.4475 408.31 51.4023C405.721 51.3571 403.666 50.491 402.146 48.8041C400.636 47.1173 399.907 44.8464 399.956 41.9914L399.96 41.7756ZM404.751 42.2079C404.722 43.9121 405.02 45.2235 405.646 46.1421C406.272 47.0496 407.182 47.5138 408.378 47.5347C409.54 47.555 410.455 47.1282 411.123 46.2543C411.792 45.3693 412.143 43.9475 412.177 41.9888C412.206 40.3179 411.902 39.0174 411.266 38.0876C410.629 37.1577 409.718 36.6824 408.534 36.6617C407.361 36.6413 406.446 37.0847 405.788 37.9919C405.13 38.8882 404.785 40.2935 404.751 42.2079Z" fill="white"/>
</g>
<g filter="url(#filter4_d)">
<path d="M245.662 616.346L241.695 616.277L241.541 625.124L236.561 625.037L236.983 600.869L245.963 601.026C248.818 601.076 251.009 601.751 252.536 603.05C254.063 604.35 254.806 606.162 254.766 608.485C254.737 610.134 254.353 611.506 253.615 612.6C252.887 613.683 251.793 614.538 250.332 615.166L255.388 625.134L255.384 625.366L250.04 625.273L245.662 616.346ZM241.766 612.243L245.783 612.314C247.033 612.335 248.007 612.037 248.704 611.418C249.401 610.788 249.76 609.915 249.779 608.797C249.799 607.657 249.488 606.755 248.847 606.091C248.216 605.427 247.232 605.083 245.893 605.06L241.892 604.99L241.766 612.243ZM266.218 625.887C263.584 625.841 261.451 624.996 259.82 623.351C258.199 621.707 257.412 619.54 257.459 616.851L257.467 616.386C257.499 614.583 257.875 612.979 258.597 611.574C259.319 610.159 260.323 609.081 261.609 608.339C262.906 607.587 264.374 607.225 266.012 607.254C268.468 607.297 270.386 608.105 271.764 609.679C273.154 611.253 273.824 613.462 273.774 616.306L273.74 618.264L262.303 618.065C262.437 619.24 262.886 620.189 263.648 620.911C264.421 621.633 265.406 622.004 266.601 622.025C268.449 622.057 269.905 621.413 270.968 620.092L273.279 622.773C272.542 623.778 271.554 624.558 270.316 625.112C269.078 625.655 267.712 625.913 266.218 625.887ZM265.927 611.138C264.976 611.121 264.195 611.428 263.587 612.06C262.989 612.691 262.597 613.603 262.41 614.796L269.083 614.912L269.089 614.53C269.086 613.468 268.812 612.644 268.269 612.059C267.726 611.462 266.945 611.155 265.927 611.138ZM292.67 617.2C292.622 619.967 291.953 622.174 290.662 623.823C289.382 625.461 287.675 626.262 285.539 626.224C283.724 626.193 282.269 625.536 281.173 624.255L281.026 632.721L276.228 632.637L276.662 607.772L281.111 607.849L281.246 609.612C282.433 608.238 283.961 607.567 285.831 607.6C288.044 607.638 289.751 608.487 290.95 610.146C292.15 611.806 292.725 614.074 292.675 616.951L292.67 617.2ZM287.879 616.768C287.908 615.097 287.632 613.802 287.05 612.884C286.48 611.967 285.63 611.498 284.501 611.478C282.996 611.452 281.952 612.01 281.367 613.151L281.239 620.504C281.805 621.698 282.84 622.309 284.345 622.335C286.636 622.375 287.814 620.519 287.879 616.768ZM306.292 624.428C305.083 625.846 303.433 626.537 301.341 626.5C299.416 626.467 297.954 625.888 296.955 624.763C295.967 623.639 295.481 622.009 295.496 619.873L295.702 608.104L300.499 608.188L300.296 619.791C300.264 621.661 301.099 622.611 302.803 622.64C304.43 622.669 305.558 622.124 306.186 621.006L306.408 608.291L311.222 608.375L310.908 626.335L306.393 626.256L306.292 624.428ZM304.564 600.721L309.793 600.812L305.105 605.877L301.204 605.809L304.564 600.721ZM330.865 617.867C330.814 620.744 330.161 622.98 328.905 624.574C327.648 626.157 325.919 626.929 323.717 626.891C321.769 626.857 320.227 626.083 319.092 624.568L318.843 626.474L314.527 626.398L314.972 600.902L319.769 600.986L319.609 610.132C320.738 608.857 322.205 608.235 324.009 608.266C326.2 608.304 327.901 609.142 329.112 610.779C330.335 612.406 330.92 614.68 330.869 617.601L330.865 617.867ZM326.074 617.434C326.105 615.62 325.841 614.292 325.28 613.452C324.719 612.601 323.869 612.166 322.729 612.146C321.202 612.119 320.14 612.726 319.542 613.966L319.419 621.054C319.983 622.326 321.034 622.975 322.573 623.002C324.122 623.029 325.153 622.283 325.667 620.765C325.912 620.038 326.048 618.928 326.074 617.434ZM338.745 626.821L333.931 626.737L334.376 601.241L339.19 601.325L338.745 626.821ZM347.775 626.979L342.961 626.895L343.274 608.934L348.088 609.018L347.775 626.979ZM343.073 604.282C343.086 603.563 343.334 602.975 343.818 602.518C344.313 602.062 344.976 601.841 345.806 601.855C346.624 601.87 347.273 602.114 347.752 602.587C348.231 603.06 348.464 603.656 348.451 604.376C348.439 605.106 348.179 605.699 347.673 606.155C347.178 606.612 346.527 606.833 345.719 606.819C344.911 606.804 344.262 606.561 343.772 606.087C343.294 605.614 343.061 605.012 343.073 604.282ZM359.273 623.643C360.158 623.658 360.882 623.427 361.444 622.95C362.006 622.473 362.305 621.83 362.341 621.023L366.839 621.101C366.807 622.319 366.455 623.43 365.785 624.437C365.114 625.433 364.204 626.203 363.054 626.747C361.916 627.281 360.661 627.536 359.289 627.512C356.721 627.467 354.71 626.618 353.256 624.966C351.802 623.302 351.1 621.032 351.15 618.154L351.155 617.839C351.204 615.072 351.978 612.878 353.479 611.254C354.979 609.631 357.013 608.842 359.58 608.887C361.827 608.926 363.614 609.599 364.942 610.907C366.28 612.203 366.942 613.914 366.927 616.039L362.429 615.96C362.423 615.03 362.149 614.273 361.605 613.688C361.062 613.092 360.337 612.786 359.43 612.77C358.312 612.75 357.458 613.145 356.869 613.954C356.29 614.752 355.985 616.064 355.953 617.89L355.944 618.387C355.912 620.236 356.171 621.568 356.721 622.386C357.272 623.204 358.122 623.623 359.273 623.643ZM379.877 627.539C379.663 627.104 379.512 626.564 379.424 625.92C378.239 627.195 376.718 627.816 374.858 627.783C373.099 627.753 371.647 627.218 370.503 626.18C369.37 625.142 368.817 623.848 368.844 622.299C368.877 620.395 369.605 618.947 371.028 617.953C372.463 616.96 374.513 616.481 377.18 616.517L379.388 616.555L379.406 615.526C379.421 614.696 379.216 614.028 378.794 613.523C378.382 613.018 377.717 612.757 376.798 612.741C375.99 612.727 375.351 612.909 374.879 613.288C374.419 613.668 374.182 614.195 374.171 614.87L369.374 614.786C369.392 613.746 369.729 612.789 370.387 611.915C371.044 611.041 371.963 610.365 373.145 609.888C374.327 609.399 375.648 609.167 377.109 609.193C379.322 609.232 381.066 609.821 382.342 610.961C383.628 612.091 384.254 613.662 384.219 615.676L384.083 623.461C384.064 625.166 384.28 626.459 384.729 627.341L384.724 627.624L379.877 627.539ZM375.968 624.133C376.676 624.146 377.332 624.002 377.935 623.703C378.538 623.392 378.988 622.974 379.285 622.448L379.339 619.36L377.546 619.329C375.145 619.287 373.853 620.095 373.669 621.752L373.647 622.034C373.637 622.631 373.838 623.128 374.252 623.522C374.666 623.917 375.238 624.121 375.968 624.133Z" fill="white"/>
</g>
<g filter="url(#filter5_d)">
<path d="M443.552 56.383L438.582 74.3051L453.697 63.4867L459.055 67.2384L445.19 87.0389L441.097 84.1727L444.887 78.7602L451.837 69.7032L436.161 80.7161L433.359 78.7545L438.35 60.2802L432.226 69.895L428.436 75.3074L424.357 72.4508L438.221 52.6503L443.552 56.383ZM455.077 94.3668C452.919 92.856 451.624 90.9626 451.191 88.6867C450.767 86.4172 451.326 84.1809 452.869 81.9778L453.135 81.597C454.17 80.1193 455.379 79.0001 456.763 78.2396C458.153 77.47 459.588 77.1374 461.069 77.2419C462.565 77.3437 463.984 77.8643 465.326 78.8038C467.339 80.2131 468.476 81.9555 468.739 84.031C469.011 86.1128 468.331 88.3187 466.699 90.6487L465.576 92.2534L456.206 85.6926C455.66 86.7425 455.501 87.7797 455.729 88.8043C455.967 89.8353 456.575 90.6936 457.554 91.3792C459.068 92.4393 460.635 92.7192 462.256 92.219L462.673 95.7334C461.499 96.1549 460.245 96.249 458.908 96.0158C457.578 95.7735 456.301 95.2239 455.077 94.3668ZM463.084 81.9765C462.304 81.4306 461.486 81.2491 460.628 81.4322C459.779 81.6215 458.944 82.1582 458.122 83.0421L463.589 86.8701L463.808 86.5573C464.4 85.6742 464.634 84.8383 464.51 84.0494C464.394 83.2515 463.918 82.5606 463.084 81.9765ZM469.798 73.1398L474.082 76.1393L467.363 77.7174L464.168 75.4797L469.798 73.1398ZM476.393 93.5048L481.944 90.8453L486.146 93.7877L476.911 98.0624L476.02 108.626L471.804 105.674L472.417 99.2124L466.568 102.008L462.339 99.0464L471.961 94.5963L472.833 84.4654L477.048 87.4173L476.393 93.5048ZM481.881 112.73L477.937 109.968L488.24 95.2541L492.184 98.0156L481.881 112.73ZM490.675 91.2845C491.088 90.6952 491.623 90.3466 492.279 90.2388C492.945 90.1374 493.617 90.3247 494.297 90.8008C494.968 91.2706 495.37 91.8355 495.502 92.4956C495.634 93.1557 495.494 93.7804 495.082 94.3697C494.663 94.9681 494.116 95.3148 493.441 95.4099C492.776 95.5114 492.112 95.3304 491.45 94.867C490.788 94.4036 490.387 93.8386 490.245 93.1722C490.113 92.5121 490.257 91.8829 490.675 91.2845ZM493.279 116.394C494.005 116.902 494.733 117.115 495.466 117.034C496.199 116.952 496.806 116.587 497.287 115.938L500.973 118.518C500.265 119.509 499.352 120.234 498.233 120.694C497.121 121.144 495.936 121.274 494.678 121.082C493.436 120.888 492.253 120.398 491.129 119.61C489.025 118.138 487.833 116.31 487.551 114.126C487.276 111.934 487.963 109.659 489.614 107.302L489.795 107.043C491.382 104.777 493.251 103.39 495.403 102.884C497.554 102.377 499.682 102.86 501.785 104.333C503.626 105.622 504.731 107.179 505.1 109.005C505.486 110.829 505.078 112.617 503.877 114.371L500.192 111.79C500.707 111.016 500.903 110.234 500.78 109.445C500.663 108.647 500.233 107.988 499.489 107.468C498.573 106.826 497.645 106.676 496.704 107.017C495.778 107.355 494.791 108.272 493.744 109.768L493.458 110.176C492.398 111.69 491.868 112.94 491.866 113.925C491.865 114.911 492.336 115.734 493.279 116.394ZM504.29 117.254C505.312 115.794 506.504 114.69 507.866 113.941C509.228 113.193 510.654 112.874 512.144 112.984C513.642 113.102 515.09 113.649 516.486 114.627C518.472 116.017 519.665 117.757 520.065 119.848C520.475 121.946 520.022 124.088 518.707 126.274L518.029 127.3C516.449 129.557 514.549 130.929 512.33 131.416C510.118 131.893 507.951 131.389 505.829 129.904C503.708 128.418 502.489 126.551 502.172 124.303C501.864 122.06 502.528 119.77 504.166 117.431L504.29 117.254ZM508.02 120.291C507.043 121.688 506.557 122.941 506.562 124.053C506.573 125.156 507.069 126.05 508.048 126.735C509 127.402 509.997 127.56 511.04 127.209C512.089 126.849 513.175 125.867 514.299 124.262C515.258 122.893 515.733 121.645 515.725 120.518C515.717 119.391 515.228 118.488 514.258 117.809C513.297 117.136 512.29 116.992 511.237 117.376C510.191 117.751 509.119 118.723 508.02 120.291Z" fill="white"/>
</g>
</g>
<defs>
<filter id="filter0_d" x="0" y="0" width="618" height="658" filterUnits="userSpaceOnUse" color-interpolation-filters="sRGB">
<feFlood flood-opacity="0" result="BackgroundImageFix"/>
<feColorMatrix in="SourceAlpha" type="matrix" values="0 0 0 0 0 0 0 0 0 0 0 0 0 0 0 0 0 0 127 0"/>
<feOffset dx="-4" dy="4"/>
<feGaussianBlur stdDeviation="2"/>
<feColorMatrix type="matrix" values="0 0 0 0 0 0 0 0 0 0 0 0 0 0 0 0 0 0 0.25 0"/>
<feBlend mode="normal" in2="BackgroundImageFix" result="effect1_dropShadow"/>
<feBlend mode="normal" in="SourceGraphic" in2="effect1_dropShadow" result="shape"/>
</filter>
<filter id="filter1_d" x="97.7768" y="43.3057" width="123.131" height="86.2088" filterUnits="userSpaceOnUse" color-interpolation-filters="sRGB">
<feFlood flood-opacity="0" result="BackgroundImageFix"/>
<feColorMatrix in="SourceAlpha" type="matrix" values="0 0 0 0 0 0 0 0 0 0 0 0 0 0 0 0 0 0 127 0"/>
<feOffset dy="4"/>
<feGaussianBlur stdDeviation="2"/>
<feColorMatrix type="matrix" values="0 0 0 0 0 0 0 0 0 0 0 0 0 0 0 0 0 0 0.25 0"/>
<feBlend mode="normal" in2="BackgroundImageFix" result="effect1_dropShadow"/>
<feBlend mode="normal" in="SourceGraphic" in2="effect1_dropShadow" result="shape"/>
</filter>
<filter id="filter2_d" x="389.181" y="506.268" width="162.873" height="118.775" filterUnits="userSpaceOnUse" color-interpolation-filters="sRGB">
<feFlood flood-opacity="0" result="BackgroundImageFix"/>
<feColorMatrix in="SourceAlpha" type="matrix" values="0 0 0 0 0 0 0 0 0 0 0 0 0 0 0 0 0 0 127 0"/>
<feOffset dy="4"/>
<feGaussianBlur stdDeviation="2"/>
<feColorMatrix type="matrix" values="0 0 0 0 0 0 0 0 0 0 0 0 0 0 0 0 0 0 0.25 0"/>
<feBlend mode="normal" in2="BackgroundImageFix" result="effect1_dropShadow"/>
<feBlend mode="normal" in="SourceGraphic" in2="effect1_dropShadow" result="shape"/>
</filter>
<filter id="filter3_d" x="227.34" y="23.8068" width="193.628" height="41.519" filterUnits="userSpaceOnUse" color-interpolation-filters="sRGB">
<feFlood flood-opacity="0" result="BackgroundImageFix"/>
<feColorMatrix in="SourceAlpha" type="matrix" values="0 0 0 0 0 0 0 0 0 0 0 0 0 0 0 0 0 0 127 0"/>
<feOffset dy="4"/>
<feGaussianBlur stdDeviation="2"/>
<feColorMatrix type="matrix" values="0 0 0 0 0 0 0 0 0 0 0 0 0 0 0 0 0 0 0.25 0"/>
<feBlend mode="normal" in2="BackgroundImageFix" result="effect1_dropShadow"/>
<feBlend mode="normal" in="SourceGraphic" in2="effect1_dropShadow" result="shape"/>
</filter>
<filter id="filter4_d" x="232.561" y="600.72" width="156.168" height="40.0003" filterUnits="userSpaceOnUse" color-interpolation-filters="sRGB">
<feFlood flood-opacity="0" result="BackgroundImageFix"/>
<feColorMatrix in="SourceAlpha" type="matrix" values="0 0 0 0 0 0 0 0 0 0 0 0 0 0 0 0 0 0 127 0"/>
<feOffset dy="4"/>
<feGaussianBlur stdDeviation="2"/>
<feColorMatrix type="matrix" values="0 0 0 0 0 0 0 0 0 0 0 0 0 0 0 0 0 0 0.25 0"/>
<feBlend mode="normal" in2="BackgroundImageFix" result="effect1_dropShadow"/>
<feBlend mode="normal" in="SourceGraphic" in2="effect1_dropShadow" result="shape"/>
</filter>
<filter id="filter5_d" x="420.357" y="52.6503" width="103.854" height="86.9398" filterUnits="userSpaceOnUse" color-interpolation-filters="sRGB">
<feFlood flood-opacity="0" result="BackgroundImageFix"/>
<feColorMatrix in="SourceAlpha" type="matrix" values="0 0 0 0 0 0 0 0 0 0 0 0 0 0 0 0 0 0 127 0"/>
<feOffset dy="4"/>
<feGaussianBlur stdDeviation="2"/>
<feColorMatrix type="matrix" values="0 0 0 0 0 0 0 0 0 0 0 0 0 0 0 0 0 0 0.25 0"/>
<feBlend mode="normal" in2="BackgroundImageFix" result="effect1_dropShadow"/>
<feBlend mode="normal" in="SourceGraphic" in2="effect1_dropShadow" result="shape"/>
</filter>
</defs>
</svg>
