<svg width="156" height="244" viewBox="0 0 156 244" fill="none" xmlns="http://www.w3.org/2000/svg">
<path d="M3.01033 241C3.34716 206.923 11.8993 176.261 25.408 154.077C39.2248 131.388 57.9067 118 78 118C98.0933 118 116.775 131.388 130.592 154.077C144.101 176.261 152.653 206.923 152.99 241H3.01033Z" fill="#D9D047" stroke="black" stroke-width="6"/>
<path d="M35.1296 45H120.87C123.523 50.9456 125 57.5445 125 64.5C125 90.7617 103.929 112 78 112C52.0707 112 31 90.7617 31 64.5C31 57.5445 32.4774 50.9456 35.1296 45Z" fill="#F1D9D9" stroke="black" stroke-width="6"/>
<path d="M124 42.4142C124 51.4237 66.2319 65.2526 42.8259 50.5708C19.4477 50.5708 28.8819 37.9654 28.8819 28.9559C28.8819 19.9464 52.8137 0 76.1919 0C123.004 0 124 33.4047 124 42.4142Z" fill="black"/>
<path d="M69 115H85L80.8 181H75L69 115Z" fill="black"/>
<ellipse cx="77.5" cy="130.5" rx="3.5" ry="4.5" fill="white"/>
<ellipse cx="77.5" cy="150.5" rx="3.5" ry="4.5" fill="white"/>
</svg>
