<svg width="158" height="248" viewBox="0 0 158 248" fill="none" xmlns="http://www.w3.org/2000/svg">
<path d="M3.00951 245C3.33522 209.721 12.0068 177.972 25.7146 155.005C39.726 131.53 58.6604 117.7 79 117.7C99.3396 117.7 118.274 131.53 132.285 155.005C145.993 177.972 154.665 209.721 154.99 245H3.00951Z" fill="#4EAFDE" stroke="black" stroke-width="6"/>
<path d="M35.571 42.2667H122.429C125.133 48.4372 126.641 55.2907 126.641 62.5167C126.641 89.7654 105.227 111.7 79.0002 111.7C52.773 111.7 31.3591 89.7654 31.3591 62.5167C31.3591 55.2907 32.8669 48.4372 35.571 42.2667Z" fill="#F1D9D9" stroke="black" stroke-width="6"/>
<path d="M144.833 56.3167C144.833 76.3208 109.563 45.5344 74.7031 45.5344C39.8432 45.5344 22.282 65.5384 22.282 45.5344C22.282 25.5303 39.8432 0 74.7031 0C116.474 3.15348e-05 144.833 36.3126 144.833 56.3167Z" fill="#121212"/>
<rect x="69.8718" y="115.7" width="18.2564" height="131.3" fill="#121212" stroke="black" stroke-width="2"/>
<ellipse cx="78.4936" cy="135.883" rx="3.54487" ry="4.64999" fill="white"/>
<ellipse cx="78.4936" cy="161.717" rx="3.54487" ry="4.64999" fill="white"/>
<ellipse cx="78.4936" cy="187.55" rx="3.54487" ry="4.65" fill="white"/>
<rect x="98.2163" y="140.757" width="21.3514" height="26.8667" rx="7" fill="black"/>
<path d="M3.00951 245C3.33522 209.721 12.0068 177.972 25.7146 155.005C39.726 131.53 58.6604 117.7 79 117.7C99.3396 117.7 118.274 131.53 132.285 155.005C145.993 177.972 154.665 209.721 154.99 245H3.00951Z" fill="black" stroke="black" stroke-width="6"/>
<path d="M35.571 42.2667H122.429C125.133 48.4372 126.641 55.2907 126.641 62.5167C126.641 89.7654 105.227 111.7 79.0002 111.7C52.773 111.7 31.3591 89.7654 31.3591 62.5167C31.3591 55.2907 32.8669 48.4372 35.571 42.2667Z" fill="#F1D9D9" stroke="black" stroke-width="6"/>
<path d="M144.833 56.3167C144.833 76.3208 109.563 45.5344 74.7031 45.5344C39.8432 45.5344 22.282 65.5384 22.282 45.5344C22.282 25.5303 39.8432 0 74.7031 0C116.474 3.15348e-05 144.833 36.3126 144.833 56.3167Z" fill="#121212"/>
<rect x="69.8718" y="115.7" width="18.2564" height="131.3" fill="white" stroke="black" stroke-width="2"/>
<ellipse cx="78.4936" cy="135.883" rx="3.54487" ry="4.64999" fill="black"/>
<ellipse cx="78.4936" cy="161.717" rx="3.54487" ry="4.64999" fill="black"/>
<ellipse cx="78.4936" cy="187.55" rx="3.54487" ry="4.65" fill="black"/>
<rect x="98.2163" y="140.757" width="21.3514" height="26.8667" rx="7" fill="black"/>
</svg>
