<svg width="313" height="411" viewBox="0 0 313 411" fill="none" xmlns="http://www.w3.org/2000/svg">
<rect x="7" y="7" width="299" height="397" rx="33" fill="white" stroke="#DD956C" stroke-width="14"/>
<rect x="55" y="235" width="203" height="20" fill="black"/>
<rect x="55" y="291" width="203" height="20" fill="black"/>
<path d="M106.018 196C106.378 172.033 112.244 150.527 121.402 134.958C130.899 118.813 143.586 109.55 157 109.55C170.414 109.55 183.101 118.813 192.598 134.958C201.756 150.527 207.622 172.033 207.982 196H106.018Z" fill="#4EAFDE" stroke="black" stroke-width="6"/>
<path d="M127.952 57.2334H186.048C187.698 61.2536 188.615 65.6891 188.615 70.3584C188.615 88.817 174.336 103.55 157 103.55C139.664 103.55 125.385 88.817 125.385 70.3584C125.385 65.6891 126.302 61.2536 127.952 57.2334Z" fill="#F1D9D9" stroke="black" stroke-width="6"/>
<path d="M202 66.0584C202 79.9321 177.891 58.5803 154.063 58.5803C130.235 58.5803 118.231 72.4541 118.231 58.5803C118.231 44.7065 130.235 27 154.063 27C182.615 27 202 52.1846 202 66.0584Z" fill="#121212"/>
<rect x="151.077" y="107.55" width="11.8461" height="90.45" fill="#121212" stroke="black" stroke-width="2"/>
<ellipse cx="156.654" cy="121.242" rx="2.42308" ry="3.22499" fill="white"/>
<ellipse cx="156.654" cy="139.158" rx="2.42308" ry="3.225" fill="white"/>
<ellipse cx="156.654" cy="157.075" rx="2.42308" ry="3.22501" fill="white"/>
<rect x="170.135" y="124.622" width="14.5946" height="18.6333" rx="7" fill="black"/>
<path d="M106.018 196C106.378 172.033 112.244 150.527 121.402 134.958C130.899 118.813 143.586 109.55 157 109.55C170.414 109.55 183.101 118.813 192.598 134.958C201.756 150.527 207.622 172.033 207.982 196H106.018Z" fill="#DD956C" stroke="black" stroke-width="6"/>
<path d="M127.952 57.2334H186.048C187.698 61.2536 188.615 65.6891 188.615 70.3584C188.615 88.817 174.336 103.55 157 103.55C139.664 103.55 125.385 88.817 125.385 70.3584C125.385 65.6891 126.302 61.2536 127.952 57.2334Z" fill="#F1D9D9" stroke="black" stroke-width="6"/>
<path d="M202 66.0584C202 79.9321 177.891 58.5803 154.063 58.5803C130.235 58.5803 118.231 72.4541 118.231 58.5803C118.231 44.7065 130.235 27 154.063 27C182.615 27 202 52.1846 202 66.0584Z" fill="#121212"/>
<rect x="151.077" y="107.55" width="11.8461" height="90.45" fill="white" stroke="black" stroke-width="2"/>
<ellipse cx="156.654" cy="121.242" rx="2.42308" ry="3.22499" fill="black"/>
<ellipse cx="156.654" cy="139.158" rx="2.42308" ry="3.225" fill="black"/>
<ellipse cx="156.654" cy="157.075" rx="2.42308" ry="3.22501" fill="black"/>
<rect x="170.135" y="124.622" width="14.5946" height="18.6333" rx="7" fill="white"/>
<rect x="55" y="347" width="203" height="20" fill="black"/>
</svg>
