<svg width="510" height="111" viewBox="0 0 510 111" fill="none" xmlns="http://www.w3.org/2000/svg">
<path d="M510 111H83V0H510V111Z" fill="#DD956C"/>
<path d="M172.46 31.0781L185.995 67.043L199.498 31.0781H210.036V78H201.915V62.5312L202.721 41.8418L188.863 78H183.03L169.205 41.874L170.011 62.5312V78H161.89V31.0781H172.46ZM239.781 78C239.438 77.334 239.137 76.249 238.879 74.7451C236.387 77.3447 233.336 78.6445 229.727 78.6445C226.225 78.6445 223.367 77.6455 221.154 75.6475C218.941 73.6494 217.835 71.1787 217.835 68.2354C217.835 64.5186 219.21 61.6719 221.96 59.6953C224.731 57.6973 228.685 56.6982 233.819 56.6982H238.621V54.4102C238.621 52.6055 238.116 51.166 237.106 50.0918C236.097 48.9961 234.561 48.4482 232.498 48.4482C230.715 48.4482 229.254 48.8994 228.115 49.8018C226.977 50.6826 226.407 51.8105 226.407 53.1855H218.576C218.576 51.2734 219.21 49.4902 220.478 47.8359C221.745 46.1602 223.464 44.8496 225.634 43.9043C227.825 42.959 230.264 42.4863 232.949 42.4863C237.031 42.4863 240.286 43.5176 242.714 45.5801C245.142 47.6211 246.388 50.5 246.452 54.2168V69.9434C246.452 73.0801 246.893 75.583 247.773 77.4521V78H239.781ZM231.177 72.3604C232.724 72.3604 234.174 71.9844 235.527 71.2324C236.902 70.4805 237.934 69.4707 238.621 68.2031V61.6289H234.399C231.499 61.6289 229.318 62.1338 227.857 63.1436C226.396 64.1533 225.666 65.582 225.666 67.4297C225.666 68.9336 226.16 70.1367 227.148 71.0391C228.158 71.9199 229.501 72.3604 231.177 72.3604ZM270.01 78.6445C265.047 78.6445 261.019 77.0869 257.925 73.9717C254.853 70.835 253.316 66.667 253.316 61.4678V60.501C253.316 57.0205 253.982 53.916 255.314 51.1875C256.668 48.4375 258.559 46.2998 260.986 44.7744C263.414 43.249 266.121 42.4863 269.107 42.4863C273.855 42.4863 277.519 44.001 280.097 47.0303C282.696 50.0596 283.996 54.3457 283.996 59.8887V63.0469H261.212C261.448 65.9258 262.404 68.2031 264.08 69.8789C265.777 71.5547 267.904 72.3926 270.461 72.3926C274.049 72.3926 276.971 70.9424 279.227 68.042L283.448 72.0703C282.052 74.1543 280.183 75.7764 277.841 76.9365C275.521 78.0752 272.91 78.6445 270.01 78.6445ZM269.075 48.7705C266.927 48.7705 265.187 49.5225 263.854 51.0264C262.544 52.5303 261.706 54.625 261.341 57.3105H276.262V56.7305C276.09 54.1094 275.392 52.1328 274.167 50.8008C272.942 49.4473 271.245 48.7705 269.075 48.7705ZM309.648 68.5254C309.648 67.1289 309.068 66.0654 307.908 65.335C306.77 64.6045 304.868 63.96 302.204 63.4014C299.54 62.8428 297.316 62.1338 295.533 61.2744C291.623 59.3838 289.668 56.6445 289.668 53.0566C289.668 50.0488 290.936 47.5352 293.471 45.5156C296.006 43.4961 299.229 42.4863 303.139 42.4863C307.307 42.4863 310.669 43.5176 313.226 45.5801C315.804 47.6426 317.093 50.3174 317.093 53.6045H309.262C309.262 52.1006 308.703 50.8545 307.586 49.8662C306.469 48.8564 304.986 48.3516 303.139 48.3516C301.42 48.3516 300.013 48.749 298.917 49.5439C297.843 50.3389 297.306 51.4023 297.306 52.7344C297.306 53.9375 297.811 54.8721 298.82 55.5381C299.83 56.2041 301.871 56.8809 304.943 57.5684C308.016 58.2344 310.422 59.04 312.162 59.9854C313.924 60.9092 315.224 62.0264 316.062 63.3369C316.921 64.6475 317.351 66.2373 317.351 68.1064C317.351 71.2432 316.051 73.7891 313.451 75.7441C310.852 77.6777 307.446 78.6445 303.235 78.6445C300.378 78.6445 297.832 78.1289 295.598 77.0977C293.363 76.0664 291.623 74.6484 290.377 72.8438C289.131 71.0391 288.508 69.0947 288.508 67.0107H296.113C296.221 68.8584 296.919 70.2871 298.208 71.2969C299.497 72.2852 301.205 72.7793 303.332 72.7793C305.395 72.7793 306.963 72.3926 308.037 71.6191C309.111 70.8242 309.648 69.793 309.648 68.5254ZM334.012 34.6553V43.1309H340.167V48.9316H334.012V68.3965C334.012 69.7285 334.27 70.6953 334.785 71.2969C335.322 71.877 336.268 72.167 337.621 72.167C338.523 72.167 339.437 72.0596 340.36 71.8447V77.9033C338.577 78.3975 336.858 78.6445 335.204 78.6445C329.188 78.6445 326.181 75.3252 326.181 68.6865V48.9316H320.444V43.1309H326.181V34.6553H334.012ZM364.434 50.2852C363.402 50.1133 362.339 50.0273 361.243 50.0273C357.655 50.0273 355.238 51.4023 353.992 54.1523V78H346.161V43.1309H353.638L353.831 47.0303C355.722 44.001 358.343 42.4863 361.694 42.4863C362.812 42.4863 363.735 42.6367 364.466 42.9375L364.434 50.2852ZM366.754 60.2432C366.754 56.8271 367.431 53.7549 368.784 51.0264C370.138 48.2764 372.039 46.1709 374.488 44.71C376.938 43.2275 379.752 42.4863 382.932 42.4863C387.637 42.4863 391.45 44.001 394.372 47.0303C397.315 50.0596 398.905 54.0771 399.142 59.083L399.174 60.9199C399.174 64.3574 398.508 67.4297 397.176 70.1367C395.865 72.8438 393.975 74.9385 391.504 76.4209C389.055 77.9033 386.219 78.6445 382.996 78.6445C378.076 78.6445 374.134 77.0117 371.169 73.7461C368.226 70.459 366.754 66.0869 366.754 60.6299V60.2432ZM374.585 60.9199C374.585 64.5078 375.326 67.3223 376.809 69.3633C378.291 71.3828 380.354 72.3926 382.996 72.3926C385.639 72.3926 387.69 71.3613 389.151 69.2988C390.634 67.2363 391.375 64.2178 391.375 60.2432C391.375 56.7197 390.612 53.9268 389.087 51.8643C387.583 49.8018 385.531 48.7705 382.932 48.7705C380.375 48.7705 378.345 49.791 376.841 51.832C375.337 53.8516 374.585 56.8809 374.585 60.9199ZM425.342 68.5254C425.342 67.1289 424.762 66.0654 423.602 65.335C422.463 64.6045 420.562 63.96 417.897 63.4014C415.233 62.8428 413.01 62.1338 411.227 61.2744C407.316 59.3838 405.361 56.6445 405.361 53.0566C405.361 50.0488 406.629 47.5352 409.164 45.5156C411.699 43.4961 414.922 42.4863 418.832 42.4863C423 42.4863 426.362 43.5176 428.919 45.5801C431.497 47.6426 432.786 50.3174 432.786 53.6045H424.955C424.955 52.1006 424.396 50.8545 423.279 49.8662C422.162 48.8564 420.68 48.3516 418.832 48.3516C417.113 48.3516 415.706 48.749 414.61 49.5439C413.536 50.3389 412.999 51.4023 412.999 52.7344C412.999 53.9375 413.504 54.8721 414.514 55.5381C415.523 56.2041 417.564 56.8809 420.637 57.5684C423.709 58.2344 426.115 59.04 427.855 59.9854C429.617 60.9092 430.917 62.0264 431.755 63.3369C432.614 64.6475 433.044 66.2373 433.044 68.1064C433.044 71.2432 431.744 73.7891 429.145 75.7441C426.545 77.6777 423.14 78.6445 418.929 78.6445C416.071 78.6445 413.525 78.1289 411.291 77.0977C409.057 76.0664 407.316 74.6484 406.07 72.8438C404.824 71.0391 404.201 69.0947 404.201 67.0107H411.807C411.914 68.8584 412.612 70.2871 413.901 71.2969C415.19 72.2852 416.898 72.7793 419.025 72.7793C421.088 72.7793 422.656 72.3926 423.73 71.6191C424.805 70.8242 425.342 69.793 425.342 68.5254Z" fill="white"/>
<path d="M0 56L83 0L83.25 111L0 56Z" fill="#DD956C"/>
</svg>
