<svg width="510" height="111" viewBox="0 0 510 111" fill="none" xmlns="http://www.w3.org/2000/svg">
<path d="M510 111H83V0H510V111Z" fill="#BE0A0A"/>
<path d="M137.849 78V31.0781H153.93C159.236 31.0781 163.275 32.1416 166.047 34.2686C168.818 36.3955 170.204 39.5645 170.204 43.7754C170.204 45.9238 169.624 47.8574 168.464 49.5762C167.304 51.2949 165.606 52.627 163.372 53.5723C165.907 54.2598 167.862 55.5596 169.237 57.4717C170.634 59.3623 171.332 61.6396 171.332 64.3037C171.332 68.708 169.914 72.0918 167.078 74.4551C164.264 76.8184 160.225 78 154.961 78H137.849ZM146.002 56.8271V71.4902H155.058C157.614 71.4902 159.612 70.8564 161.052 69.5889C162.491 68.3213 163.211 66.5596 163.211 64.3037C163.211 59.4268 160.719 56.9346 155.734 56.8271H146.002ZM146.002 50.833H153.994C156.529 50.833 158.506 50.2637 159.924 49.125C161.363 47.9648 162.083 46.332 162.083 44.2266C162.083 41.9062 161.417 40.2305 160.085 39.1992C158.774 38.168 156.723 37.6523 153.93 37.6523H146.002V50.833ZM187.059 78H179.228V43.1309H187.059V78ZM178.744 34.0752C178.744 32.8721 179.12 31.873 179.872 31.0781C180.646 30.2832 181.741 29.8857 183.159 29.8857C184.577 29.8857 185.673 30.2832 186.446 31.0781C187.22 31.873 187.606 32.8721 187.606 34.0752C187.606 35.2568 187.22 36.2451 186.446 37.04C185.673 37.8135 184.577 38.2002 183.159 38.2002C181.741 38.2002 180.646 37.8135 179.872 37.04C179.12 36.2451 178.744 35.2568 178.744 34.0752ZM210.971 78.6445C206.008 78.6445 201.979 77.0869 198.886 73.9717C195.813 70.835 194.277 66.667 194.277 61.4678V60.501C194.277 57.0205 194.943 53.916 196.275 51.1875C197.629 48.4375 199.52 46.2998 201.947 44.7744C204.375 43.249 207.082 42.4863 210.068 42.4863C214.816 42.4863 218.479 44.001 221.058 47.0303C223.657 50.0596 224.957 54.3457 224.957 59.8887V63.0469H202.173C202.409 65.9258 203.365 68.2031 205.041 69.8789C206.738 71.5547 208.865 72.3926 211.422 72.3926C215.01 72.3926 217.932 70.9424 220.188 68.042L224.409 72.0703C223.013 74.1543 221.144 75.7764 218.802 76.9365C216.481 78.0752 213.871 78.6445 210.971 78.6445ZM210.036 48.7705C207.888 48.7705 206.147 49.5225 204.815 51.0264C203.505 52.5303 202.667 54.625 202.302 57.3105H217.223V56.7305C217.051 54.1094 216.353 52.1328 215.128 50.8008C213.903 49.4473 212.206 48.7705 210.036 48.7705ZM238.331 43.1309L238.557 47.1592C241.135 44.0439 244.519 42.4863 248.708 42.4863C255.97 42.4863 259.665 46.6436 259.794 54.958V78H251.963V55.4092C251.963 53.1963 251.479 51.5635 250.513 50.5107C249.567 49.4365 248.01 48.8994 245.84 48.8994C242.682 48.8994 240.329 50.3281 238.782 53.1855V78H230.951V43.1309H238.331ZM280.097 68.0742L287.477 43.1309H295.565L283.48 78H276.681L264.499 43.1309H272.62L280.097 68.0742ZM315.385 78.6445C310.422 78.6445 306.394 77.0869 303.3 73.9717C300.228 70.835 298.691 66.667 298.691 61.4678V60.501C298.691 57.0205 299.357 53.916 300.689 51.1875C302.043 48.4375 303.934 46.2998 306.361 44.7744C308.789 43.249 311.496 42.4863 314.482 42.4863C319.23 42.4863 322.894 44.001 325.472 47.0303C328.071 50.0596 329.371 54.3457 329.371 59.8887V63.0469H306.587C306.823 65.9258 307.779 68.2031 309.455 69.8789C311.152 71.5547 313.279 72.3926 315.836 72.3926C319.424 72.3926 322.346 70.9424 324.602 68.042L328.823 72.0703C327.427 74.1543 325.558 75.7764 323.216 76.9365C320.896 78.0752 318.285 78.6445 315.385 78.6445ZM314.45 48.7705C312.302 48.7705 310.562 49.5225 309.229 51.0264C307.919 52.5303 307.081 54.625 306.716 57.3105H321.637V56.7305C321.465 54.1094 320.767 52.1328 319.542 50.8008C318.317 49.4473 316.62 48.7705 314.45 48.7705ZM342.745 43.1309L342.971 47.1592C345.549 44.0439 348.933 42.4863 353.122 42.4863C360.384 42.4863 364.079 46.6436 364.208 54.958V78H356.377V55.4092C356.377 53.1963 355.894 51.5635 354.927 50.5107C353.981 49.4365 352.424 48.8994 350.254 48.8994C347.096 48.8994 344.743 50.3281 343.196 53.1855V78H335.365V43.1309H342.745ZM380.547 78H372.716V43.1309H380.547V78ZM372.232 34.0752C372.232 32.8721 372.608 31.873 373.36 31.0781C374.134 30.2832 375.229 29.8857 376.647 29.8857C378.065 29.8857 379.161 30.2832 379.935 31.0781C380.708 31.873 381.095 32.8721 381.095 34.0752C381.095 35.2568 380.708 36.2451 379.935 37.04C379.161 37.8135 378.065 38.2002 376.647 38.2002C375.229 38.2002 374.134 37.8135 373.36 37.04C372.608 36.2451 372.232 35.2568 372.232 34.0752ZM387.637 60.3076C387.637 54.9365 388.883 50.6289 391.375 47.3848C393.867 44.1191 397.208 42.4863 401.397 42.4863C405.093 42.4863 408.079 43.7754 410.356 46.3535V28.5H418.188V78H411.098L410.711 74.3906C408.369 77.2266 405.243 78.6445 401.333 78.6445C397.251 78.6445 393.942 77.001 391.407 73.7139C388.894 70.4268 387.637 65.958 387.637 60.3076ZM395.468 60.9844C395.468 64.5293 396.145 67.3008 397.498 69.2988C398.873 71.2754 400.817 72.2637 403.331 72.2637C406.532 72.2637 408.874 70.835 410.356 67.9775V53.0889C408.917 50.2959 406.597 48.8994 403.396 48.8994C400.86 48.8994 398.905 49.9092 397.53 51.9287C396.155 53.9268 395.468 56.9453 395.468 60.9844ZM424.891 60.2432C424.891 56.8271 425.567 53.7549 426.921 51.0264C428.274 48.2764 430.176 46.1709 432.625 44.71C435.074 43.2275 437.889 42.4863 441.068 42.4863C445.773 42.4863 449.587 44.001 452.509 47.0303C455.452 50.0596 457.042 54.0771 457.278 59.083L457.311 60.9199C457.311 64.3574 456.645 67.4297 455.312 70.1367C454.002 72.8438 452.111 74.9385 449.641 76.4209C447.191 77.9033 444.355 78.6445 441.133 78.6445C436.213 78.6445 432.271 77.0117 429.306 73.7461C426.362 70.459 424.891 66.0869 424.891 60.6299V60.2432ZM432.722 60.9199C432.722 64.5078 433.463 67.3223 434.945 69.3633C436.428 71.3828 438.49 72.3926 441.133 72.3926C443.775 72.3926 445.827 71.3613 447.288 69.2988C448.771 67.2363 449.512 64.2178 449.512 60.2432C449.512 56.7197 448.749 53.9268 447.224 51.8643C445.72 49.8018 443.668 48.7705 441.068 48.7705C438.512 48.7705 436.481 49.791 434.978 51.832C433.474 53.8516 432.722 56.8809 432.722 60.9199Z" fill="white"/>
<path d="M0 56L83 0L83.25 111L0 56Z" fill="#BE0A0A"/>
</svg>
