<svg viewBox="0 0 46 58" fill="none" xmlns="http://www.w3.org/2000/svg">
<rect x="1" y="28" width="44" height="17" rx="2" fill="#E8E8E8" stroke="black" stroke-width="2"/>
<path d="M10.7903 56.5C8.31335 56.5 6.27373 54.4833 6.21319 51.9622C6.13025 48.5084 5.99226 45.1521 5.86 41.935L5.85941 41.9206C5.72677 38.6942 5.60016 35.6118 5.53866 32.687C5.41529 26.8199 5.55809 21.694 6.40552 17.4614C7.25084 13.2392 8.76688 10.062 11.2672 7.92066C13.7593 5.78639 17.4421 4.49997 23 4.5C28.5579 4.50003 32.2407 5.78648 34.7328 7.92077C37.2331 10.0621 38.7492 13.2394 39.5945 17.4615C40.4419 21.6941 40.5847 26.8199 40.4613 32.6871C40.3998 35.6118 40.2732 38.6942 40.1406 41.9207L40.14 41.9346C40.0077 45.1518 39.8698 48.5083 39.7868 51.9622C39.7263 54.4833 37.6867 56.5 35.2097 56.5H10.7903Z" fill="#8FC294" stroke="black" stroke-width="3"/>
<line x1="6" y1="45" x2="39.0151" y2="45" stroke="black" stroke-width="2"/>
<line x1="6" y1="36" x2="39.0151" y2="36" stroke="black" stroke-width="2"/>
<path d="M32.94 29H12.06C12.1291 27.407 12.0947 25.881 12.0631 24.4804C12.0539 24.0706 12.0449 23.6716 12.0388 23.2848C12.0065 21.2326 12.0579 19.5583 12.4818 18.2049C12.8842 16.9203 13.6242 15.9202 15.0706 15.2049C16.5768 14.46 18.9004 14 22.5 14C26.0996 14 28.4232 14.46 29.9294 15.2049C31.3758 15.9202 32.1158 16.9203 32.5182 18.2049C32.9421 19.5583 32.9935 21.2326 32.9612 23.2848C32.9551 23.6716 32.9461 24.0706 32.9369 24.4804C32.9053 25.881 32.8709 27.407 32.94 29Z" fill="#E8E8E8" stroke="black" stroke-width="2"/>
<line x1="16.5" y1="21" x2="16.5" y2="24" stroke="black"/>
<line x1="11.5" y1="36" x2="11.5" y2="40" stroke="black"/>
<line x1="12" y1="20.5" x2="33" y2="20.5" stroke="black"/>
</svg>
