<svg width="209" height="261" viewBox="0 0 209 261" fill="none" xmlns="http://www.w3.org/2000/svg">
<mask id="path-1-inside-1" fill="white">
<rect y="121.5" width="209" height="85.5" rx="3"/>
</mask>
<rect y="121.5" width="209" height="85.5" rx="3" fill="#333333" stroke="#F2F2F2" stroke-width="20" mask="url(#path-1-inside-1)"/>
<path d="M104.5 18.5C131.45 18.5002 149.143 25.0214 160.941 36.0529C172.81 47.1501 179.48 63.5162 182.858 84.8079C186.238 106.107 186.229 131.684 185.28 160.592C184.983 169.632 184.594 179 184.194 188.641C183.323 209.649 182.397 231.947 182.255 254.949C182.251 255.555 181.759 256 181.236 256H27.7645C27.2412 256 26.7493 255.555 26.7456 254.949C26.603 231.947 25.6776 209.648 24.8058 188.64C24.4057 179 24.0169 169.632 23.7202 160.592C22.7715 131.684 22.7623 106.107 26.1419 84.8075C29.5203 63.5156 36.1897 47.1495 48.0588 36.0523C59.8574 25.021 77.5498 18.4998 104.5 18.5Z" fill="#333333" stroke="#F2F2F2" stroke-width="10"/>
<line x1="27.2609" y1="202" x2="185.313" y2="202" stroke="#F2F2F2" stroke-width="10"/>
<line x1="27.2609" y1="161.5" x2="177.264" y2="161.5" stroke="#F2F2F2" stroke-width="10"/>
<path d="M149.184 130H55.2726C55.5577 122.997 55.4049 116.289 55.2649 110.139C55.2229 108.298 55.1822 106.507 55.1546 104.773C55.0077 95.5335 55.2458 88.0816 57.1423 82.0848C58.9288 76.4357 62.2011 72.0414 68.6583 68.8786C75.4152 65.569 85.897 63.5 102.228 63.5C118.56 63.5 129.041 65.569 135.798 68.8786C142.255 72.0414 145.528 76.4356 147.314 82.0848C149.211 88.0816 149.449 95.5335 149.302 104.773C149.274 106.507 149.234 108.298 149.192 110.139C149.052 116.289 148.899 122.997 149.184 130Z" fill="#333333" stroke="#F2F2F2" stroke-width="10"/>
<line x1="77.6957" y1="94.5" x2="77.6957" y2="108" stroke="#F2F2F2" stroke-width="10"/>
<line x1="54.9783" y1="162" x2="54.9783" y2="180" stroke="#F2F2F2" stroke-width="10"/>
<line x1="54.5217" y1="89.5" x2="149.935" y2="89.5" stroke="#F2F2F2" stroke-width="10"/>
</svg>
