<svg width="510" height="111" viewBox="0 0 510 111" fill="none" xmlns="http://www.w3.org/2000/svg">
<path d="M510 111H83V0H510V111Z" fill="#D9D047"/>
<path d="M167.755 62.7246C167.282 67.7305 165.435 71.6406 162.212 74.4551C158.989 77.248 154.703 78.6445 149.354 78.6445C145.615 78.6445 142.317 77.7637 139.46 76.002C136.624 74.2188 134.433 71.6943 132.886 68.4287C131.339 65.1631 130.533 61.3711 130.469 57.0527V52.6699C130.469 48.2441 131.253 44.3447 132.821 40.9717C134.39 37.5986 136.635 34.999 139.557 33.1729C142.5 31.3467 145.895 30.4336 149.74 30.4336C154.918 30.4336 159.086 31.8408 162.244 34.6553C165.402 37.4697 167.239 41.4443 167.755 46.5791H159.634C159.247 43.2061 158.259 40.7783 156.669 39.2959C155.101 37.792 152.791 37.04 149.74 37.04C146.195 37.04 143.467 38.3398 141.555 40.9395C139.664 43.5176 138.697 47.3096 138.654 52.3154V56.4727C138.654 61.543 139.557 65.4102 141.361 68.0742C143.188 70.7383 145.852 72.0703 149.354 72.0703C152.555 72.0703 154.961 71.3506 156.572 69.9111C158.184 68.4717 159.204 66.0762 159.634 62.7246H167.755ZM172.847 60.2432C172.847 56.8271 173.523 53.7549 174.877 51.0264C176.23 48.2764 178.132 46.1709 180.581 44.71C183.03 43.2275 185.845 42.4863 189.024 42.4863C193.729 42.4863 197.543 44.001 200.465 47.0303C203.408 50.0596 204.998 54.0771 205.234 59.083L205.267 60.9199C205.267 64.3574 204.601 67.4297 203.269 70.1367C201.958 72.8438 200.067 74.9385 197.597 76.4209C195.147 77.9033 192.312 78.6445 189.089 78.6445C184.169 78.6445 180.227 77.0117 177.262 73.7461C174.318 70.459 172.847 66.0869 172.847 60.6299V60.2432ZM180.678 60.9199C180.678 64.5078 181.419 67.3223 182.901 69.3633C184.384 71.3828 186.446 72.3926 189.089 72.3926C191.731 72.3926 193.783 71.3613 195.244 69.2988C196.727 67.2363 197.468 64.2178 197.468 60.2432C197.468 56.7197 196.705 53.9268 195.18 51.8643C193.676 49.8018 191.624 48.7705 189.024 48.7705C186.468 48.7705 184.438 49.791 182.934 51.832C181.43 53.8516 180.678 56.8809 180.678 60.9199ZM219.253 43.1309L219.479 46.7725C221.928 43.915 225.279 42.4863 229.533 42.4863C234.195 42.4863 237.386 44.2695 239.104 47.8359C241.64 44.2695 245.206 42.4863 249.804 42.4863C253.649 42.4863 256.507 43.5498 258.376 45.6768C260.267 47.8037 261.233 50.9404 261.276 55.0869V78H253.445V55.3125C253.445 53.0996 252.962 51.4775 251.995 50.4463C251.028 49.415 249.428 48.8994 247.193 48.8994C245.41 48.8994 243.949 49.3828 242.811 50.3496C241.693 51.2949 240.909 52.541 240.458 54.0879L240.49 78H232.659V55.0547C232.552 50.9512 230.457 48.8994 226.375 48.8994C223.238 48.8994 221.015 50.1777 219.704 52.7344V78H211.873V43.1309H219.253ZM290.441 74.584C288.143 77.291 284.877 78.6445 280.645 78.6445C276.863 78.6445 273.995 77.5381 272.04 75.3252C270.106 73.1123 269.14 69.9111 269.14 65.7217V43.1309H276.971V65.625C276.971 70.0508 278.808 72.2637 282.481 72.2637C286.284 72.2637 288.852 70.8994 290.184 68.1709V43.1309H298.015V78H290.635L290.441 74.584ZM313.258 43.1309L313.483 47.1592C316.062 44.0439 319.445 42.4863 323.635 42.4863C330.896 42.4863 334.592 46.6436 334.721 54.958V78H326.89V55.4092C326.89 53.1963 326.406 51.5635 325.439 50.5107C324.494 49.4365 322.937 48.8994 320.767 48.8994C317.608 48.8994 315.256 50.3281 313.709 53.1855V78H305.878V43.1309H313.258ZM351.06 78H343.229V43.1309H351.06V78ZM342.745 34.0752C342.745 32.8721 343.121 31.873 343.873 31.0781C344.646 30.2832 345.742 29.8857 347.16 29.8857C348.578 29.8857 349.674 30.2832 350.447 31.0781C351.221 31.873 351.607 32.8721 351.607 34.0752C351.607 35.2568 351.221 36.2451 350.447 37.04C349.674 37.8135 348.578 38.2002 347.16 38.2002C345.742 38.2002 344.646 37.8135 343.873 37.04C343.121 36.2451 342.745 35.2568 342.745 34.0752ZM358.149 60.3076C358.149 54.9365 359.396 50.6289 361.888 47.3848C364.38 44.1191 367.721 42.4863 371.91 42.4863C375.605 42.4863 378.592 43.7754 380.869 46.3535V28.5H388.7V78H381.61L381.224 74.3906C378.882 77.2266 375.756 78.6445 371.846 78.6445C367.764 78.6445 364.455 77.001 361.92 73.7139C359.406 70.4268 358.149 65.958 358.149 60.3076ZM365.98 60.9844C365.98 64.5293 366.657 67.3008 368.011 69.2988C369.386 71.2754 371.33 72.2637 373.844 72.2637C377.045 72.2637 379.387 70.835 380.869 67.9775V53.0889C379.43 50.2959 377.109 48.8994 373.908 48.8994C371.373 48.8994 369.418 49.9092 368.043 51.9287C366.668 53.9268 365.98 56.9453 365.98 60.9844ZM417.704 78C417.36 77.334 417.06 76.249 416.802 74.7451C414.31 77.3447 411.259 78.6445 407.649 78.6445C404.147 78.6445 401.29 77.6455 399.077 75.6475C396.864 73.6494 395.758 71.1787 395.758 68.2354C395.758 64.5186 397.133 61.6719 399.883 59.6953C402.654 57.6973 406.607 56.6982 411.742 56.6982H416.544V54.4102C416.544 52.6055 416.039 51.166 415.029 50.0918C414.02 48.9961 412.483 48.4482 410.421 48.4482C408.638 48.4482 407.177 48.8994 406.038 49.8018C404.899 50.6826 404.33 51.8105 404.33 53.1855H396.499C396.499 51.2734 397.133 49.4902 398.4 47.8359C399.668 46.1602 401.387 44.8496 403.557 43.9043C405.748 42.959 408.187 42.4863 410.872 42.4863C414.954 42.4863 418.209 43.5176 420.637 45.5801C423.064 47.6211 424.311 50.5 424.375 54.2168V69.9434C424.375 73.0801 424.815 75.583 425.696 77.4521V78H417.704ZM409.1 72.3604C410.646 72.3604 412.097 71.9844 413.45 71.2324C414.825 70.4805 415.856 69.4707 416.544 68.2031V61.6289H412.322C409.422 61.6289 407.241 62.1338 405.78 63.1436C404.319 64.1533 403.589 65.582 403.589 67.4297C403.589 68.9336 404.083 70.1367 405.071 71.0391C406.081 71.9199 407.424 72.3604 409.1 72.3604ZM431.11 60.3076C431.11 54.9365 432.356 50.6289 434.849 47.3848C437.341 44.1191 440.682 42.4863 444.871 42.4863C448.566 42.4863 451.553 43.7754 453.83 46.3535V28.5H461.661V78H454.571L454.185 74.3906C451.843 77.2266 448.717 78.6445 444.807 78.6445C440.725 78.6445 437.416 77.001 434.881 73.7139C432.367 70.4268 431.11 65.958 431.11 60.3076ZM438.941 60.9844C438.941 64.5293 439.618 67.3008 440.972 69.2988C442.347 71.2754 444.291 72.2637 446.805 72.2637C450.006 72.2637 452.348 70.835 453.83 67.9775V53.0889C452.391 50.2959 450.07 48.8994 446.869 48.8994C444.334 48.8994 442.379 49.9092 441.004 51.9287C439.629 53.9268 438.941 56.9453 438.941 60.9844Z" fill="white"/>
<path d="M0 56L83 0L83.25 111L0 56Z" fill="#D9D047"/>
</svg>
