<svg viewBox="0 0 221 169" fill="none" xmlns="http://www.w3.org/2000/svg">
<path d="M116.02 164C116.402 141.209 122.25 120.767 131.371 105.96C140.836 90.5921 153.517 81.709 167 81.709C180.483 81.709 193.164 90.5921 202.629 105.96C211.75 120.767 217.598 141.209 217.98 164H116.02Z" fill="#D9D047" stroke="black" stroke-width="6"/>
<path d="M137.917 31.7459H196.083C197.713 35.5494 198.615 39.739 198.615 44.1455C198.615 61.5733 184.465 75.709 167 75.709C149.535 75.709 135.385 61.5733 135.385 44.1455C135.385 39.739 136.287 35.5494 137.917 31.7459Z" fill="#F1D9D9" stroke="black" stroke-width="6"/>
<path d="M198.846 29.0294C198.846 35.1957 158.853 44.6606 142.649 34.612C126.464 34.612 132.995 25.9845 132.995 19.8182C132.995 13.6518 149.563 0 165.748 0C198.157 0 198.846 22.8631 198.846 29.0294Z" fill="black"/>
<path d="M160.769 78.709H171.846L168.939 123.881H164.923L160.769 78.709Z" fill="black"/>
<ellipse cx="166.654" cy="89.3176" rx="2.42308" ry="3.07992" fill="white"/>
<ellipse cx="166.654" cy="103.006" rx="2.42308" ry="3.07992" fill="white"/>
<path d="M3.01989 164C3.40154 141.209 9.25042 120.767 18.3706 105.96C27.8365 90.5921 40.5173 81.709 54 81.709C67.4827 81.709 80.1635 90.5921 89.6294 105.96C98.7496 120.767 104.598 141.209 104.98 164H3.01989Z" fill="#D9D047" stroke="black" stroke-width="6"/>
<path d="M24.9167 31.7459H83.0834C84.7126 35.5494 85.6154 39.739 85.6154 44.1455C85.6154 61.5733 71.465 75.709 54 75.709C36.5351 75.709 22.3846 61.5733 22.3846 44.1455C22.3846 39.739 23.2874 35.5494 24.9167 31.7459Z" fill="#F1D9D9" stroke="black" stroke-width="6"/>
<path d="M85.8461 29.0294C85.8461 35.1957 45.8528 44.6606 29.6487 34.612C13.4637 34.612 19.9951 25.9845 19.9951 19.8182C19.9951 13.6518 36.5633 0 52.7482 0C85.1565 0 85.8461 22.8631 85.8461 29.0294Z" fill="black"/>
<path d="M47.7693 78.709H58.8462L55.9385 123.881H51.9231L47.7693 78.709Z" fill="black"/>
<ellipse cx="53.6539" cy="89.3176" rx="2.42308" ry="3.07992" fill="white"/>
<ellipse cx="53.6539" cy="103.006" rx="2.42308" ry="3.07992" fill="white"/>
<rect x="102" y="103" width="21" height="66" rx="10.5" fill="#54BF66"/>
<rect x="79.5" y="146.5" width="21" height="66" rx="10.5" transform="rotate(-90 79.5 146.5)" fill="#54BF66"/>
</svg>
