<svg viewBox="0 0 156 244" fill="none" xmlns="http://www.w3.org/2000/svg">
<path d="M3.00984 241C3.33894 206.318 11.8969 175.111 25.4193 152.534C39.2474 129.447 57.9313 115.85 78 115.85C98.0687 115.85 116.753 129.447 130.581 152.534C144.103 175.111 152.661 206.318 152.99 241H3.00984Z" fill="#4EAFDE" stroke="black" stroke-width="6"/>
<path d="M35.1427 41.6334H120.857C123.517 47.691 125 54.4172 125 61.5083C125 88.2821 103.883 109.85 78 109.85C52.117 109.85 31 88.2821 31 61.5083C31 54.4172 32.4827 47.691 35.1427 41.6334Z" fill="#F1D9D9" stroke="black" stroke-width="6"/>
<path d="M143 55.4084C143 75.0898 108.176 44.7999 73.7575 44.7999C39.339 44.7999 22 64.4814 22 44.7999C22 25.1185 39.339 0 73.7575 0C115 3.10262e-05 143 35.7269 143 55.4084Z" fill="#121212"/>
<rect x="68.9999" y="113.85" width="18" height="129.15" fill="#121212" stroke="black" stroke-width="2"/>
<ellipse cx="77.5" cy="133.692" rx="3.5" ry="4.575" fill="white"/>
<ellipse cx="77.5" cy="159.108" rx="3.5" ry="4.575" fill="white"/>
<ellipse cx="77.5" cy="184.525" rx="3.5" ry="4.575" fill="white"/>
<rect x="96.9729" y="138.487" width="21.0811" height="26.4333" rx="7" fill="black"/>
</svg>
