<svg width="333" height="325" viewBox="0 0 333 325" fill="none" xmlns="http://www.w3.org/2000/svg">
<path d="M285.5 141.283V311C285.5 315.142 282.142 318.5 278 318.5H54C49.8579 318.5 46.5 315.142 46.5 311V141.482C46.5 139.237 47.5063 137.109 49.2422 135.685L164.028 41.4888C166.845 39.1771 170.916 39.2248 173.678 41.602L282.892 135.598C284.548 137.023 285.5 139.099 285.5 141.283Z" fill="#333333" stroke="#F2F2F2" stroke-width="13"/>
<rect x="170.912" y="5.68934" width="18" height="209.971" rx="9" transform="rotate(52 170.912 5.68934)" fill="#333333" stroke="#F2F2F2" stroke-width="7"/>
<rect x="328.044" y="138.125" width="18" height="205.658" rx="9" transform="rotate(130 328.044 138.125)" fill="#333333" stroke="#F2F2F2" stroke-width="7"/>
<mask id="path-4-inside-1" fill="white">
<rect x="120" y="217" width="91" height="101" rx="5"/>
</mask>
<rect x="120" y="217" width="91" height="101" rx="5" fill="#333333" stroke="#F2F2F2" stroke-width="20" mask="url(#path-4-inside-1)"/>
<path d="M173.717 20.0263C173.601 21.286 172.968 22.4413 171.968 23.2166L163.804 29.5491C161.63 31.2354 158.541 31.0411 156.596 29.0955V29.0955C154.374 26.8736 154.48 23.2396 156.829 21.152L157 21L159 19.5L168.19 14.1795C168.373 14.0736 168.604 14.1039 168.753 14.2533V14.2533C168.9 14.3995 169.125 14.4319 169.306 14.3329L170.569 13.6444C172.246 12.7294 174.265 14.0568 174.09 15.9594L173.717 20.0263Z" fill="#333333"/>
</svg>
