<svg width="510" height="111" viewBox="0 0 510 111" fill="none" xmlns="http://www.w3.org/2000/svg">
<path d="M510 111H83V0H510V111Z" fill="#2F2F2F"/>
<path d="M130.662 78H122.541V31.0781H130.662V78ZM147.194 43.1309L147.42 47.1592C149.998 44.0439 153.382 42.4863 157.571 42.4863C164.833 42.4863 168.528 46.6436 168.657 54.958V78H160.826V55.4092C160.826 53.1963 160.343 51.5635 159.376 50.5107C158.431 49.4365 156.873 48.8994 154.703 48.8994C151.545 48.8994 149.192 50.3281 147.646 53.1855V78H139.814V43.1309H147.194ZM179.421 78V48.9316H174.104V43.1309H179.421V39.9404C179.421 36.0732 180.495 33.0869 182.644 30.9814C184.792 28.876 187.8 27.8232 191.667 27.8232C193.042 27.8232 194.503 28.0166 196.05 28.4033L195.856 34.5264C194.997 34.3545 193.998 34.2686 192.859 34.2686C189.121 34.2686 187.252 36.1914 187.252 40.0371V43.1309H194.342V48.9316H187.252V78H179.421ZM198.596 60.2432C198.596 56.8271 199.272 53.7549 200.626 51.0264C201.979 48.2764 203.881 46.1709 206.33 44.71C208.779 43.2275 211.594 42.4863 214.773 42.4863C219.479 42.4863 223.292 44.001 226.214 47.0303C229.157 50.0596 230.747 54.0771 230.983 59.083L231.016 60.9199C231.016 64.3574 230.35 67.4297 229.018 70.1367C227.707 72.8438 225.816 74.9385 223.346 76.4209C220.896 77.9033 218.061 78.6445 214.838 78.6445C209.918 78.6445 205.976 77.0117 203.011 73.7461C200.067 70.459 198.596 66.0869 198.596 60.6299V60.2432ZM206.427 60.9199C206.427 64.5078 207.168 67.3223 208.65 69.3633C210.133 71.3828 212.195 72.3926 214.838 72.3926C217.48 72.3926 219.532 71.3613 220.993 69.2988C222.476 67.2363 223.217 64.2178 223.217 60.2432C223.217 56.7197 222.454 53.9268 220.929 51.8643C219.425 49.8018 217.373 48.7705 214.773 48.7705C212.217 48.7705 210.187 49.791 208.683 51.832C207.179 53.8516 206.427 56.8809 206.427 60.9199ZM255.895 50.2852C254.863 50.1133 253.8 50.0273 252.704 50.0273C249.116 50.0273 246.699 51.4023 245.453 54.1523V78H237.622V43.1309H245.099L245.292 47.0303C247.183 44.001 249.804 42.4863 253.155 42.4863C254.272 42.4863 255.196 42.6367 255.927 42.9375L255.895 50.2852ZM268.205 43.1309L268.431 46.7725C270.88 43.915 274.231 42.4863 278.485 42.4863C283.147 42.4863 286.338 44.2695 288.057 47.8359C290.592 44.2695 294.158 42.4863 298.756 42.4863C302.602 42.4863 305.459 43.5498 307.328 45.6768C309.219 47.8037 310.186 50.9404 310.229 55.0869V78H302.397V55.3125C302.397 53.0996 301.914 51.4775 300.947 50.4463C299.98 49.415 298.38 48.8994 296.146 48.8994C294.362 48.8994 292.901 49.3828 291.763 50.3496C290.646 51.2949 289.861 52.541 289.41 54.0879L289.442 78H281.611V55.0547C281.504 50.9512 279.409 48.8994 275.327 48.8994C272.19 48.8994 269.967 50.1777 268.656 52.7344V78H260.825V43.1309H268.205ZM339.104 78C338.76 77.334 338.459 76.249 338.201 74.7451C335.709 77.3447 332.658 78.6445 329.049 78.6445C325.547 78.6445 322.689 77.6455 320.477 75.6475C318.264 73.6494 317.157 71.1787 317.157 68.2354C317.157 64.5186 318.532 61.6719 321.282 59.6953C324.054 57.6973 328.007 56.6982 333.142 56.6982H337.943V54.4102C337.943 52.6055 337.438 51.166 336.429 50.0918C335.419 48.9961 333.883 48.4482 331.82 48.4482C330.037 48.4482 328.576 48.8994 327.438 49.8018C326.299 50.6826 325.729 51.8105 325.729 53.1855H317.898C317.898 51.2734 318.532 49.4902 319.8 47.8359C321.067 46.1602 322.786 44.8496 324.956 43.9043C327.147 42.959 329.586 42.4863 332.271 42.4863C336.354 42.4863 339.608 43.5176 342.036 45.5801C344.464 47.6211 345.71 50.5 345.774 54.2168V69.9434C345.774 73.0801 346.215 75.583 347.096 77.4521V78H339.104ZM330.499 72.3604C332.046 72.3604 333.496 71.9844 334.85 71.2324C336.225 70.4805 337.256 69.4707 337.943 68.2031V61.6289H333.722C330.821 61.6289 328.641 62.1338 327.18 63.1436C325.719 64.1533 324.988 65.582 324.988 67.4297C324.988 68.9336 325.482 70.1367 326.471 71.0391C327.48 71.9199 328.823 72.3604 330.499 72.3604ZM368.301 72.3926C370.256 72.3926 371.878 71.8232 373.167 70.6846C374.456 69.5459 375.144 68.1387 375.229 66.4629H382.609C382.523 68.6328 381.847 70.6631 380.579 72.5537C379.312 74.4229 377.593 75.9053 375.423 77.001C373.253 78.0967 370.911 78.6445 368.397 78.6445C363.521 78.6445 359.653 77.0654 356.796 73.9072C353.938 70.749 352.51 66.3877 352.51 60.8232V60.0176C352.51 54.7109 353.928 50.4678 356.764 47.2881C359.6 44.0869 363.467 42.4863 368.365 42.4863C372.512 42.4863 375.885 43.7002 378.484 46.1279C381.105 48.5342 382.48 51.7031 382.609 55.6348H375.229C375.144 53.6367 374.456 51.9932 373.167 50.7041C371.899 49.415 370.277 48.7705 368.301 48.7705C365.766 48.7705 363.811 49.6943 362.436 51.542C361.061 53.3682 360.362 56.1504 360.341 59.8887V61.1455C360.341 64.9268 361.018 67.752 362.371 69.6211C363.746 71.4688 365.723 72.3926 368.301 72.3926ZM396.854 78H389.022V43.1309H396.854V78ZM388.539 34.0752C388.539 32.8721 388.915 31.873 389.667 31.0781C390.44 30.2832 391.536 29.8857 392.954 29.8857C394.372 29.8857 395.468 30.2832 396.241 31.0781C397.015 31.873 397.401 32.8721 397.401 34.0752C397.401 35.2568 397.015 36.2451 396.241 37.04C395.468 37.8135 394.372 38.2002 392.954 38.2002C391.536 38.2002 390.44 37.8135 389.667 37.04C388.915 36.2451 388.539 35.2568 388.539 34.0752ZM403.943 60.2432C403.943 56.8271 404.62 53.7549 405.974 51.0264C407.327 48.2764 409.229 46.1709 411.678 44.71C414.127 43.2275 416.941 42.4863 420.121 42.4863C424.826 42.4863 428.64 44.001 431.562 47.0303C434.505 50.0596 436.095 54.0771 436.331 59.083L436.363 60.9199C436.363 64.3574 435.697 67.4297 434.365 70.1367C433.055 72.8438 431.164 74.9385 428.693 76.4209C426.244 77.9033 423.408 78.6445 420.186 78.6445C415.266 78.6445 411.323 77.0117 408.358 73.7461C405.415 70.459 403.943 66.0869 403.943 60.6299V60.2432ZM411.774 60.9199C411.774 64.5078 412.516 67.3223 413.998 69.3633C415.48 71.3828 417.543 72.3926 420.186 72.3926C422.828 72.3926 424.88 71.3613 426.341 69.2988C427.823 67.2363 428.564 64.2178 428.564 60.2432C428.564 56.7197 427.802 53.9268 426.276 51.8643C424.772 49.8018 422.721 48.7705 420.121 48.7705C417.564 48.7705 415.534 49.791 414.03 51.832C412.526 53.8516 411.774 56.8809 411.774 60.9199ZM422.28 28.5H431.207L422.28 38.2646H415.996L422.28 28.5ZM450.253 43.1309L450.479 47.1592C453.057 44.0439 456.44 42.4863 460.63 42.4863C467.892 42.4863 471.587 46.6436 471.716 54.958V78H463.885V55.4092C463.885 53.1963 463.401 51.5635 462.435 50.5107C461.489 49.4365 459.932 48.8994 457.762 48.8994C454.604 48.8994 452.251 50.3281 450.704 53.1855V78H442.873V43.1309H450.253Z" fill="white"/>
<path d="M0 56L83 0L83.25 111L0 56Z" fill="#2F2F2F"/>
</svg>
