<svg width="510" height="111" viewBox="0 0 510 111" fill="none" xmlns="http://www.w3.org/2000/svg">
<path d="M510 111H83V0H510V111Z" fill="#179A2C"/>
<path d="M186.591 78H178.47V31.0781H186.591V78ZM203.123 43.1309L203.349 47.1592C205.927 44.0439 209.311 42.4863 213.5 42.4863C220.762 42.4863 224.457 46.6436 224.586 54.958V78H216.755V55.4092C216.755 53.1963 216.271 51.5635 215.305 50.5107C214.359 49.4365 212.802 48.8994 210.632 48.8994C207.474 48.8994 205.121 50.3281 203.574 53.1855V78H195.743V43.1309H203.123ZM252.14 68.5254C252.14 67.1289 251.56 66.0654 250.399 65.335C249.261 64.6045 247.359 63.96 244.695 63.4014C242.031 62.8428 239.808 62.1338 238.024 61.2744C234.114 59.3838 232.159 56.6445 232.159 53.0566C232.159 50.0488 233.427 47.5352 235.962 45.5156C238.497 43.4961 241.72 42.4863 245.63 42.4863C249.798 42.4863 253.16 43.5176 255.717 45.5801C258.295 47.6426 259.584 50.3174 259.584 53.6045H251.753C251.753 52.1006 251.194 50.8545 250.077 49.8662C248.96 48.8564 247.478 48.3516 245.63 48.3516C243.911 48.3516 242.504 48.749 241.408 49.5439C240.334 50.3389 239.797 51.4023 239.797 52.7344C239.797 53.9375 240.302 54.8721 241.312 55.5381C242.321 56.2041 244.362 56.8809 247.435 57.5684C250.507 58.2344 252.913 59.04 254.653 59.9854C256.415 60.9092 257.715 62.0264 258.553 63.3369C259.412 64.6475 259.842 66.2373 259.842 68.1064C259.842 71.2432 258.542 73.7891 255.942 75.7441C253.343 77.6777 249.938 78.6445 245.727 78.6445C242.869 78.6445 240.323 78.1289 238.089 77.0977C235.854 76.0664 234.114 74.6484 232.868 72.8438C231.622 71.0391 230.999 69.0947 230.999 67.0107H238.604C238.712 68.8584 239.41 70.2871 240.699 71.2969C241.988 72.2852 243.696 72.7793 245.823 72.7793C247.886 72.7793 249.454 72.3926 250.528 71.6191C251.603 70.8242 252.14 69.793 252.14 68.5254ZM276.503 34.6553V43.1309H282.658V48.9316H276.503V68.3965C276.503 69.7285 276.761 70.6953 277.276 71.2969C277.813 71.877 278.759 72.167 280.112 72.167C281.015 72.167 281.928 72.0596 282.852 71.8447V77.9033C281.068 78.3975 279.35 78.6445 277.695 78.6445C271.68 78.6445 268.672 75.3252 268.672 68.6865V48.9316H262.936V43.1309H268.672V34.6553H276.503ZM296.999 78H289.168V43.1309H296.999V78ZM288.685 34.0752C288.685 32.8721 289.061 31.873 289.812 31.0781C290.586 30.2832 291.682 29.8857 293.1 29.8857C294.518 29.8857 295.613 30.2832 296.387 31.0781C297.16 31.873 297.547 32.8721 297.547 34.0752C297.547 35.2568 297.16 36.2451 296.387 37.04C295.613 37.8135 294.518 38.2002 293.1 38.2002C291.682 38.2002 290.586 37.8135 289.812 37.04C289.061 36.2451 288.685 35.2568 288.685 34.0752ZM315.368 34.6553V43.1309H321.523V48.9316H315.368V68.3965C315.368 69.7285 315.626 70.6953 316.142 71.2969C316.679 71.877 317.624 72.167 318.978 72.167C319.88 72.167 320.793 72.0596 321.717 71.8447V77.9033C319.934 78.3975 318.215 78.6445 316.561 78.6445C310.545 78.6445 307.537 75.3252 307.537 68.6865V48.9316H301.801V43.1309H307.537V34.6553H315.368ZM348.658 74.584C346.359 77.291 343.094 78.6445 338.861 78.6445C335.08 78.6445 332.212 77.5381 330.257 75.3252C328.323 73.1123 327.356 69.9111 327.356 65.7217V43.1309H335.188V65.625C335.188 70.0508 337.024 72.2637 340.698 72.2637C344.501 72.2637 347.068 70.8994 348.4 68.1709V43.1309H356.231V78H348.852L348.658 74.584ZM374.021 34.6553V43.1309H380.176V48.9316H374.021V68.3965C374.021 69.7285 374.278 70.6953 374.794 71.2969C375.331 71.877 376.276 72.167 377.63 72.167C378.532 72.167 379.445 72.0596 380.369 71.8447V77.9033C378.586 78.3975 376.867 78.6445 375.213 78.6445C369.197 78.6445 366.189 75.3252 366.189 68.6865V48.9316H360.453V43.1309H366.189V34.6553H374.021ZM383.753 60.2432C383.753 56.8271 384.43 53.7549 385.783 51.0264C387.137 48.2764 389.038 46.1709 391.487 44.71C393.937 43.2275 396.751 42.4863 399.931 42.4863C404.636 42.4863 408.449 44.001 411.371 47.0303C414.314 50.0596 415.904 54.0771 416.141 59.083L416.173 60.9199C416.173 64.3574 415.507 67.4297 414.175 70.1367C412.864 72.8438 410.974 74.9385 408.503 76.4209C406.054 77.9033 403.218 78.6445 399.995 78.6445C395.075 78.6445 391.133 77.0117 388.168 73.7461C385.225 70.459 383.753 66.0869 383.753 60.6299V60.2432ZM391.584 60.9199C391.584 64.5078 392.325 67.3223 393.808 69.3633C395.29 71.3828 397.353 72.3926 399.995 72.3926C402.638 72.3926 404.689 71.3613 406.15 69.2988C407.633 67.2363 408.374 64.2178 408.374 60.2432C408.374 56.7197 407.611 53.9268 406.086 51.8643C404.582 49.8018 402.53 48.7705 399.931 48.7705C397.374 48.7705 395.344 49.791 393.84 51.832C392.336 53.8516 391.584 56.8809 391.584 60.9199Z" fill="white"/>
<path d="M0 56L83 0L83.25 111L0 56Z" fill="#179A2C"/>
</svg>
