<svg width="510" height="111" viewBox="0 0 510 111" fill="none" xmlns="http://www.w3.org/2000/svg">
<path d="M510 111H83V0H510V111Z" fill="#8FC294"/>
<path d="M153.897 78V31.0781H169.979C175.285 31.0781 179.324 32.1416 182.096 34.2686C184.867 36.3955 186.253 39.5645 186.253 43.7754C186.253 45.9238 185.673 47.8574 184.513 49.5762C183.353 51.2949 181.655 52.627 179.421 53.5723C181.956 54.2598 183.911 55.5596 185.286 57.4717C186.683 59.3623 187.381 61.6396 187.381 64.3037C187.381 68.708 185.963 72.0918 183.127 74.4551C180.312 76.8184 176.273 78 171.01 78H153.897ZM162.051 56.8271V71.4902H171.106C173.663 71.4902 175.661 70.8564 177.101 69.5889C178.54 68.3213 179.26 66.5596 179.26 64.3037C179.26 59.4268 176.768 56.9346 171.783 56.8271H162.051ZM162.051 50.833H170.043C172.578 50.833 174.555 50.2637 175.973 49.125C177.412 47.9648 178.132 46.332 178.132 44.2266C178.132 41.9062 177.466 40.2305 176.134 39.1992C174.823 38.168 172.771 37.6523 169.979 37.6523H162.051V50.833ZM203.107 78H195.276V43.1309H203.107V78ZM194.793 34.0752C194.793 32.8721 195.169 31.873 195.921 31.0781C196.694 30.2832 197.79 29.8857 199.208 29.8857C200.626 29.8857 201.722 30.2832 202.495 31.0781C203.269 31.873 203.655 32.8721 203.655 34.0752C203.655 35.2568 203.269 36.2451 202.495 37.04C201.722 37.8135 200.626 38.2002 199.208 38.2002C197.79 38.2002 196.694 37.8135 195.921 37.04C195.169 36.2451 194.793 35.2568 194.793 34.0752ZM242.263 60.9199C242.263 66.334 241.049 70.6416 238.621 73.8428C236.215 77.0439 232.896 78.6445 228.663 78.6445C224.581 78.6445 221.401 77.1729 219.124 74.2295L218.737 78H211.647V28.5H219.479V46.4824C221.734 43.8184 224.774 42.4863 228.599 42.4863C232.853 42.4863 236.193 44.0654 238.621 47.2236C241.049 50.3818 242.263 54.7969 242.263 60.4688V60.9199ZM234.432 60.2432C234.432 56.4619 233.766 53.626 232.434 51.7354C231.102 49.8447 229.168 48.8994 226.633 48.8994C223.238 48.8994 220.854 50.3818 219.479 53.3467V67.7197C220.875 70.749 223.281 72.2637 226.697 72.2637C229.146 72.2637 231.037 71.3506 232.369 69.5244C233.701 67.6982 234.389 64.9375 234.432 61.2422V60.2432ZM257.184 78H249.353V28.5H257.184V78ZM274.07 78H266.239V43.1309H274.07V78ZM265.756 34.0752C265.756 32.8721 266.132 31.873 266.884 31.0781C267.657 30.2832 268.753 29.8857 270.171 29.8857C271.589 29.8857 272.685 30.2832 273.458 31.0781C274.231 31.873 274.618 32.8721 274.618 34.0752C274.618 35.2568 274.231 36.2451 273.458 37.04C272.685 37.8135 271.589 38.2002 270.171 38.2002C268.753 38.2002 267.657 37.8135 266.884 37.04C266.132 36.2451 265.756 35.2568 265.756 34.0752ZM281.16 60.2432C281.16 56.8271 281.837 53.7549 283.19 51.0264C284.544 48.2764 286.445 46.1709 288.895 44.71C291.344 43.2275 294.158 42.4863 297.338 42.4863C302.043 42.4863 305.856 44.001 308.778 47.0303C311.722 50.0596 313.312 54.0771 313.548 59.083L313.58 60.9199C313.58 64.3574 312.914 67.4297 311.582 70.1367C310.271 72.8438 308.381 74.9385 305.91 76.4209C303.461 77.9033 300.625 78.6445 297.402 78.6445C292.482 78.6445 288.54 77.0117 285.575 73.7461C282.632 70.459 281.16 66.0869 281.16 60.6299V60.2432ZM288.991 60.9199C288.991 64.5078 289.732 67.3223 291.215 69.3633C292.697 71.3828 294.76 72.3926 297.402 72.3926C300.045 72.3926 302.097 71.3613 303.558 69.2988C305.04 67.2363 305.781 64.2178 305.781 60.2432C305.781 56.7197 305.019 53.9268 303.493 51.8643C301.989 49.8018 299.938 48.7705 297.338 48.7705C294.781 48.7705 292.751 49.791 291.247 51.832C289.743 53.8516 288.991 56.8809 288.991 60.9199ZM330.016 34.6553V43.1309H336.171V48.9316H330.016V68.3965C330.016 69.7285 330.273 70.6953 330.789 71.2969C331.326 71.877 332.271 72.167 333.625 72.167C334.527 72.167 335.44 72.0596 336.364 71.8447V77.9033C334.581 78.3975 332.862 78.6445 331.208 78.6445C325.192 78.6445 322.185 75.3252 322.185 68.6865V48.9316H316.448V43.1309H322.185V34.6553H330.016ZM357.537 78.6445C352.574 78.6445 348.546 77.0869 345.452 73.9717C342.38 70.835 340.844 66.667 340.844 61.4678V60.501C340.844 57.0205 341.51 53.916 342.842 51.1875C344.195 48.4375 346.086 46.2998 348.514 44.7744C350.941 43.249 353.648 42.4863 356.635 42.4863C361.383 42.4863 365.046 44.001 367.624 47.0303C370.224 50.0596 371.523 54.3457 371.523 59.8887V63.0469H348.739C348.976 65.9258 349.932 68.2031 351.607 69.8789C353.305 71.5547 355.432 72.3926 357.988 72.3926C361.576 72.3926 364.498 70.9424 366.754 68.042L370.976 72.0703C369.579 74.1543 367.71 75.7764 365.368 76.9365C363.048 78.0752 360.438 78.6445 357.537 78.6445ZM356.603 48.7705C354.454 48.7705 352.714 49.5225 351.382 51.0264C350.071 52.5303 349.233 54.625 348.868 57.3105H363.789V56.7305C363.617 54.1094 362.919 52.1328 361.694 50.8008C360.47 49.4473 358.772 48.7705 356.603 48.7705ZM391.955 72.3926C393.91 72.3926 395.532 71.8232 396.821 70.6846C398.11 69.5459 398.798 68.1387 398.884 66.4629H406.264C406.178 68.6328 405.501 70.6631 404.233 72.5537C402.966 74.4229 401.247 75.9053 399.077 77.001C396.907 78.0967 394.565 78.6445 392.052 78.6445C387.175 78.6445 383.308 77.0654 380.45 73.9072C377.593 70.749 376.164 66.3877 376.164 60.8232V60.0176C376.164 54.7109 377.582 50.4678 380.418 47.2881C383.254 44.0869 387.121 42.4863 392.02 42.4863C396.166 42.4863 399.539 43.7002 402.139 46.1279C404.76 48.5342 406.135 51.7031 406.264 55.6348H398.884C398.798 53.6367 398.11 51.9932 396.821 50.7041C395.554 49.415 393.932 48.7705 391.955 48.7705C389.42 48.7705 387.465 49.6943 386.09 51.542C384.715 53.3682 384.017 56.1504 383.995 59.8887V61.1455C383.995 64.9268 384.672 67.752 386.025 69.6211C387.4 71.4688 389.377 72.3926 391.955 72.3926ZM433.012 78C432.668 77.334 432.367 76.249 432.109 74.7451C429.617 77.3447 426.566 78.6445 422.957 78.6445C419.455 78.6445 416.598 77.6455 414.385 75.6475C412.172 73.6494 411.065 71.1787 411.065 68.2354C411.065 64.5186 412.44 61.6719 415.19 59.6953C417.962 57.6973 421.915 56.6982 427.05 56.6982H431.852V54.4102C431.852 52.6055 431.347 51.166 430.337 50.0918C429.327 48.9961 427.791 48.4482 425.729 48.4482C423.945 48.4482 422.484 48.8994 421.346 49.8018C420.207 50.6826 419.638 51.8105 419.638 53.1855H411.807C411.807 51.2734 412.44 49.4902 413.708 47.8359C414.976 46.1602 416.694 44.8496 418.864 43.9043C421.056 42.959 423.494 42.4863 426.18 42.4863C430.262 42.4863 433.517 43.5176 435.944 45.5801C438.372 47.6211 439.618 50.5 439.683 54.2168V69.9434C439.683 73.0801 440.123 75.583 441.004 77.4521V78H433.012ZM424.407 72.3604C425.954 72.3604 427.404 71.9844 428.758 71.2324C430.133 70.4805 431.164 69.4707 431.852 68.2031V61.6289H427.63C424.729 61.6289 422.549 62.1338 421.088 63.1436C419.627 64.1533 418.896 65.582 418.896 67.4297C418.896 68.9336 419.391 70.1367 420.379 71.0391C421.389 71.9199 422.731 72.3604 424.407 72.3604Z" fill="white"/>
<path d="M0 56L83 0L83.25 111L0 56Z" fill="#8FC294"/>
</svg>
