<svg width="45" height="45" viewBox="0 0 45 45" fill="none" xmlns="http://www.w3.org/2000/svg">
<path d="M45 5.41667C45 10.4793 34.9264 10.8333 22.5 10.8333C10.0736 10.8333 0 10.4793 0 5.41667C0 0.354057 10.0736 0 22.5 0C34.9264 0 45 0.354057 45 5.41667Z" fill="white"/>
<path d="M45 22.5C45 27.5626 34.9264 27.9167 22.5 27.9167C10.0736 27.9167 0 27.5626 0 22.5C0 17.4374 10.0736 17.0833 22.5 17.0833C34.9264 17.0833 45 17.4374 45 22.5Z" fill="white"/>
<path d="M45 39.5833C45 44.6459 34.9264 45 22.5 45C10.0736 45 0 44.6459 0 39.5833C0 34.5207 10.0736 34.1667 22.5 34.1667C34.9264 34.1667 45 34.5207 45 39.5833Z" fill="white"/>
</svg>
