<svg width="286" height="280" viewBox="0 0 286 280" fill="none" xmlns="http://www.w3.org/2000/svg">
<rect x="225.012" y="5.40757" width="77.9523" height="52.5961" rx="11.5" transform="rotate(45 225.012 5.40757)" fill="#AD3434" stroke="black" stroke-width="7"/>
<rect x="189.614" y="42.9497" width="74.8535" height="206" transform="rotate(45 189.614 42.9497)" fill="#F48E15" stroke="black" stroke-width="7"/>
<rect x="61.9615" y="202.941" width="4" height="167.036" transform="rotate(-135 61.9615 202.941)" fill="black"/>
<rect x="82.8284" y="225.941" width="4" height="84.5667" transform="rotate(-135 82.8284 225.941)" fill="black"/>
<rect x="166.261" y="142.194" width="4" height="51.4284" transform="rotate(-135 166.261 142.194)" fill="black"/>
<rect x="164.121" y="74.5771" width="36" height="67.0477" transform="rotate(-45 164.121 74.5771)" fill="#948989" stroke="black" stroke-width="3"/>
<path d="M19.0653 265.495L28.9894 229.156L56.0123 256.698L19.0653 265.495Z" fill="black"/>
<path d="M90.9769 244.875L56.9525 253.375L32.1591 228.582L40.6596 194.558L90.9769 244.875Z" fill="#F1B8B8" stroke="black" stroke-width="6"/>
</svg>
