<svg viewBox="0 0 989 640" fill="none" xmlns="http://www.w3.org/2000/svg">
<rect x="18.2463" y="549.819" width="970" height="89.9239" rx="44.9619" fill="#4EAD4C"/>
<rect x="650.746" y="310.258" width="204" height="277.017" fill="#DE8601" stroke="black" stroke-width="7"/>
<rect x="153.746" y="310.258" width="204" height="277.017" fill="#DE8601" stroke="black" stroke-width="7"/>
<rect x="155.246" y="564.955" width="199" height="19.5874" fill="#945120" fill-opacity="0.76"/>
<rect x="654.246" y="564.955" width="197" height="19.5874" fill="#945120" fill-opacity="0.76"/>
<rect x="157.246" y="330.797" width="197" height="13.355" fill="#CE6B23" fill-opacity="0.78"/>
<rect x="654.246" y="332.577" width="197" height="13.355" fill="#CE6B23" fill-opacity="0.78"/>
<path d="M505.218 116.075L643.746 216.395V605.526H362.746V216.424L505.218 116.075Z" fill="#DE8601" stroke="black" stroke-width="7"/>
<rect x="366.246" y="584.542" width="274" height="20.4777" fill="#945120" fill-opacity="0.76"/>
<rect x="389.746" y="596.836" width="226" height="15.4777" fill="#DE8601" stroke="black" stroke-width="5"/>
<rect x="420.746" y="576.358" width="165" height="15.4777" fill="#DE8601" stroke="black" stroke-width="5"/>
<rect x="436.246" y="438.856" width="134" height="132.892" fill="#89D5FF" stroke="black" stroke-width="6"/>
<line x1="504.246" y1="440.308" x2="504.246" y2="570.297" stroke="#DEDEDE" stroke-width="2"/>
<rect x="489.246" y="498.18" width="7" height="15.1357" rx="3.5" fill="black"/>
<rect x="510.246" y="498.18" width="7" height="15.1357" rx="3.5" fill="black"/>
<rect width="2.35733" height="14.2585" rx="1.17866" transform="matrix(0.723275 0.69056 -0.769386 0.638784 462.217 491.947)" fill="#FCFCFC"/>
<rect width="2.35733" height="14.2585" rx="1.17866" transform="matrix(0.723275 0.69056 -0.769386 0.638784 542.217 491.947)" fill="#FCFCFC"/>
<rect width="2.35732" height="14.2585" rx="1.17866" transform="matrix(0.723276 0.690559 -0.769387 0.638783 480.217 508.864)" fill="#FCFCFC"/>
<rect width="2.35733" height="14.2585" rx="1.17866" transform="matrix(0.723277 0.690558 -0.769388 0.638781 560.217 508.864)" fill="#FCFCFC"/>
<rect width="2.35733" height="23.7642" rx="1.17866" transform="matrix(0.723275 0.69056 -0.769386 0.638784 476.53 496.399)" fill="#FCFCFC"/>
<rect width="2.35732" height="23.7642" rx="1.17866" transform="matrix(0.723274 0.690562 -0.769385 0.638786 556.53 496.399)" fill="#FCFCFC"/>
<rect x="436.246" y="320.442" width="54" height="51.8718" rx="3" fill="#89D5FF" stroke="black" stroke-width="6"/>
<rect x="436.246" y="320.442" width="54" height="51.8718" rx="3" fill="#89D5FF" stroke="black" stroke-width="6"/>
<rect x="276.246" y="357.836" width="54" height="51.8718" rx="3" fill="#89D5FF" stroke="black" stroke-width="6"/>
<rect x="276.246" y="357.836" width="54" height="51.8718" rx="3" fill="#89D5FF" stroke="black" stroke-width="6"/>
<rect x="684.246" y="357.836" width="54" height="51.8718" rx="3" fill="#89D5FF" stroke="black" stroke-width="6"/>
<rect x="684.246" y="488.715" width="54" height="51.8718" rx="3" fill="#89D5FF" stroke="black" stroke-width="6"/>
<rect x="777.246" y="357.836" width="54" height="51.8718" rx="3" fill="#89D5FF" stroke="black" stroke-width="6"/>
<rect x="777.246" y="488.715" width="54" height="51.8718" rx="3" fill="#89D5FF" stroke="black" stroke-width="6"/>
<rect x="276.246" y="488.715" width="54" height="51.8718" rx="3" fill="#89D5FF" stroke="black" stroke-width="6"/>
<rect x="189.246" y="357.836" width="54" height="51.8718" rx="3" fill="#89D5FF" stroke="black" stroke-width="6"/>
<rect x="189.246" y="488.715" width="54" height="51.8718" rx="3" fill="#89D5FF" stroke="black" stroke-width="6"/>
<rect x="522.246" y="320.442" width="54.0001" height="51.8718" rx="3" fill="#89D5FF" stroke="black" stroke-width="6"/>
<line x1="463.246" y1="320.113" x2="463.246" y2="370.862" stroke="black" stroke-width="6"/>
<line x1="303.246" y1="356.616" x2="303.246" y2="407.365" stroke="black" stroke-width="6"/>
<line x1="303.246" y1="356.616" x2="303.246" y2="407.365" stroke="black" stroke-width="6"/>
<line x1="711.246" y1="356.616" x2="711.246" y2="407.365" stroke="black" stroke-width="6"/>
<line x1="711.246" y1="487.496" x2="711.246" y2="538.245" stroke="black" stroke-width="6"/>
<path d="M805.246 356.616V407.365" stroke="black" stroke-width="6"/>
<path d="M805.246 487.496V538.245" stroke="black" stroke-width="6"/>
<line x1="303.246" y1="487.496" x2="303.246" y2="538.245" stroke="black" stroke-width="6"/>
<line x1="216.246" y1="356.616" x2="216.246" y2="407.365" stroke="black" stroke-width="6"/>
<line x1="216.246" y1="487.496" x2="216.246" y2="538.245" stroke="black" stroke-width="6"/>
<line x1="549.246" y1="320.113" x2="549.246" y2="370.862" stroke="black" stroke-width="6"/>
<line x1="487.749" y1="347.152" x2="433.246" y2="347.152" stroke="black" stroke-width="6"/>
<line x1="327.749" y1="384.546" x2="273.246" y2="384.546" stroke="black" stroke-width="6"/>
<line x1="327.749" y1="384.546" x2="273.246" y2="384.546" stroke="black" stroke-width="6"/>
<line x1="735.749" y1="384.546" x2="681.246" y2="384.546" stroke="black" stroke-width="6"/>
<line x1="735.749" y1="515.425" x2="681.246" y2="515.425" stroke="black" stroke-width="6"/>
<line x1="831.749" y1="384.546" x2="777.246" y2="384.546" stroke="black" stroke-width="6"/>
<line x1="831.749" y1="515.425" x2="777.246" y2="515.425" stroke="black" stroke-width="6"/>
<line x1="327.749" y1="515.425" x2="273.246" y2="515.425" stroke="black" stroke-width="6"/>
<line x1="240.749" y1="384.546" x2="186.246" y2="384.546" stroke="black" stroke-width="6"/>
<line x1="240.749" y1="515.425" x2="186.246" y2="515.425" stroke="black" stroke-width="6"/>
<line x1="573.749" y1="347.152" x2="519.246" y2="347.152" stroke="black" stroke-width="6"/>
<path d="M434.225 412.406C434.225 411.281 433.826 410.413 433.03 409.804C432.244 409.195 430.821 408.579 428.758 407.958C426.696 407.337 425.055 406.646 423.836 405.884C421.504 404.419 420.338 402.509 420.338 400.154C420.338 398.091 421.176 396.392 422.852 395.056C424.539 393.72 426.725 393.052 429.408 393.052C431.19 393.052 432.778 393.38 434.172 394.036C435.567 394.693 436.662 395.63 437.459 396.849C438.256 398.056 438.655 399.398 438.655 400.874H434.225C434.225 399.538 433.803 398.495 432.959 397.745C432.127 396.984 430.932 396.603 429.373 396.603C427.92 396.603 426.789 396.913 425.981 397.534C425.184 398.156 424.785 399.023 424.785 400.136C424.785 401.073 425.219 401.859 426.086 402.491C426.953 403.113 428.383 403.722 430.375 404.32C432.367 404.906 433.967 405.579 435.174 406.341C436.381 407.091 437.266 407.958 437.828 408.943C438.391 409.915 438.672 411.058 438.672 412.37C438.672 414.503 437.852 416.202 436.211 417.468C434.582 418.722 432.367 419.349 429.567 419.349C427.715 419.349 426.01 419.009 424.451 418.329C422.905 417.638 421.698 416.689 420.83 415.482C419.975 414.275 419.547 412.868 419.547 411.263H423.994C423.994 412.716 424.475 413.841 425.436 414.638C426.397 415.435 427.774 415.833 429.567 415.833C431.114 415.833 432.274 415.523 433.047 414.902C433.832 414.269 434.225 413.437 434.225 412.406ZM471.069 410.665C470.811 413.396 469.803 415.529 468.045 417.064C466.287 418.587 463.949 419.349 461.031 419.349C458.992 419.349 457.194 418.868 455.635 417.907C454.088 416.935 452.893 415.558 452.049 413.777C451.205 411.995 450.766 409.927 450.731 407.572V405.181C450.731 402.767 451.158 400.64 452.014 398.8C452.869 396.96 454.094 395.542 455.688 394.546C457.293 393.55 459.145 393.052 461.242 393.052C464.067 393.052 466.34 393.82 468.063 395.355C469.785 396.89 470.787 399.058 471.069 401.859H466.639C466.428 400.019 465.889 398.695 465.022 397.886C464.166 397.066 462.906 396.656 461.242 396.656C459.309 396.656 457.821 397.365 456.778 398.782C455.746 400.189 455.219 402.257 455.196 404.988V407.255C455.196 410.021 455.688 412.13 456.672 413.583C457.668 415.036 459.121 415.763 461.031 415.763C462.778 415.763 464.09 415.37 464.969 414.585C465.848 413.8 466.405 412.493 466.639 410.665H471.069ZM504.344 418.997H499.914V407.624H488.471V418.997H484.024V393.404H488.471V404.056H499.914V393.404H504.344V418.997ZM539.008 406.868C539.008 409.376 538.574 411.579 537.707 413.478C536.84 415.365 535.598 416.818 533.981 417.837C532.375 418.845 530.524 419.349 528.426 419.349C526.352 419.349 524.5 418.845 522.871 417.837C521.254 416.818 520 415.37 519.11 413.495C518.231 411.62 517.785 409.458 517.774 407.009V405.568C517.774 403.072 518.213 400.868 519.092 398.958C519.983 397.048 521.231 395.589 522.836 394.581C524.453 393.562 526.305 393.052 528.391 393.052C530.477 393.052 532.323 393.556 533.928 394.564C535.545 395.56 536.793 397.001 537.672 398.888C538.551 400.763 538.996 402.948 539.008 405.445V406.868ZM534.561 405.532C534.561 402.697 534.022 400.523 532.944 399.011C531.877 397.499 530.36 396.743 528.391 396.743C526.469 396.743 524.963 397.499 523.873 399.011C522.795 400.511 522.244 402.638 522.221 405.392V406.868C522.221 409.681 522.766 411.855 523.856 413.39C524.957 414.925 526.481 415.693 528.426 415.693C530.395 415.693 531.906 414.943 532.961 413.443C534.028 411.943 534.561 409.751 534.561 406.868V405.532ZM572.828 406.868C572.828 409.376 572.395 411.579 571.528 413.478C570.66 415.365 569.418 416.818 567.801 417.837C566.196 418.845 564.344 419.349 562.246 419.349C560.172 419.349 558.321 418.845 556.692 417.837C555.074 416.818 553.821 415.37 552.93 413.495C552.051 411.62 551.606 409.458 551.594 407.009V405.568C551.594 403.072 552.033 400.868 552.912 398.958C553.803 397.048 555.051 395.589 556.656 394.581C558.274 393.562 560.125 393.052 562.211 393.052C564.297 393.052 566.143 393.556 567.748 394.564C569.365 395.56 570.614 397.001 571.492 398.888C572.371 400.763 572.817 402.948 572.828 405.445V406.868ZM568.381 405.532C568.381 402.697 567.842 400.523 566.764 399.011C565.698 397.499 564.18 396.743 562.211 396.743C560.289 396.743 558.783 397.499 557.694 399.011C556.615 400.511 556.065 402.638 556.041 405.392V406.868C556.041 409.681 556.586 411.855 557.676 413.39C558.778 414.925 560.301 415.693 562.246 415.693C564.215 415.693 565.727 414.943 566.781 413.443C567.848 411.943 568.381 409.751 568.381 406.868V405.532ZM590.67 415.447H602.289V418.997H586.223V393.404H590.67V415.447Z" fill="black"/>
<path d="M536.746 266.692C536.746 282.257 522.477 295.354 504.246 295.354C486.016 295.354 471.746 282.257 471.746 266.692C471.746 251.128 486.016 238.031 504.246 238.031C522.477 238.031 536.746 251.128 536.746 266.692Z" fill="white" stroke="black" stroke-width="5"/>
<rect x="500.246" y="235.531" width="7" height="10.684" rx="3.5" fill="black"/>
<rect x="500.246" y="287.17" width="7" height="10.684" rx="3.5" fill="black"/>
<rect width="6.81619" height="9.85308" rx="3.40809" transform="matrix(0.889378 0.457173 -0.544081 0.839033 516.246 238.202)" fill="black"/>
<rect width="6.81619" height="9.87486" rx="3.4081" transform="matrix(0.889378 0.457172 -0.544082 0.839032 487.619 281.015)" fill="black"/>
<rect width="6.81619" height="11.0277" rx="3.40809" transform="matrix(0.889378 -0.457172 0.544082 0.839032 485.246 240.427)" fill="black"/>
<rect width="6.8162" height="9.21254" rx="3.4081" transform="matrix(0.889378 -0.457172 0.544082 0.839032 514.234 285.577)" fill="black"/>
<rect width="6.43286" height="10.1878" rx="3.21643" transform="matrix(0.544082 0.839032 -0.889378 0.457172 529.639 246.215)" fill="black"/>
<rect width="6.43284" height="9.28877" rx="3.21642" transform="matrix(0.544082 0.839032 -0.889379 0.457171 480.508 271.349)" fill="black"/>
<rect width="6.43286" height="11.0575" rx="3.21643" transform="matrix(0.544082 -0.839032 0.889378 0.457172 474.246 251.612)" fill="black"/>
<rect width="6.43285" height="10.6992" rx="3.21643" transform="matrix(0.544082 -0.839032 0.889378 0.457172 523.123 277.882)" fill="black"/>
<rect x="538.246" y="260.46" width="6.23235" height="12" rx="3.11617" transform="rotate(90 538.246 260.46)" fill="black"/>
<rect x="482.246" y="260.46" width="6.23235" height="11" rx="3.11617" transform="rotate(90 482.246 260.46)" fill="black"/>
<rect x="503.246" y="249.776" width="6" height="23.1487" rx="3" fill="black"/>
<rect width="5.50374" height="19.4199" rx="2.75187" transform="matrix(0.528524 -0.848918 0.896739 0.442559 489.246 265.799)" fill="black"/>
<rect x="133.746" y="201.637" width="224" height="125.66" fill="#BE0A0A" stroke="black" stroke-width="7"/>
<rect x="-0.403367" y="3.30669" width="27.9874" height="219.837" rx="13.9937" transform="matrix(0.659576 0.751638 -0.820923 0.571039 512.528 71.4396)" fill="#BE0A0A" stroke="black" stroke-width="5"/>
<rect x="650.746" y="201.637" width="224" height="128.331" fill="#BE0A0A" stroke="black" stroke-width="7"/>
<rect x="-3.71002" y="0.387379" width="29.8946" height="219.926" rx="14.9473" transform="matrix(-0.672849 0.73978 -0.811157 -0.584828 681.486 204.091)" fill="#BE0A0A" stroke="black" stroke-width="5"/>
<path d="M488.746 118.452L484.746 93.9674L498.746 83.2833L513.746 85.5092V100.366L509.746 104.651L488.746 118.452Z" fill="#BE0A0A"/>
<path d="M495.746 87.735L495.246 86.8447V86.3995L490.246 89.9608L486.746 92.1867L485.746 93.077L486.746 93.9674L495.746 87.735Z" stroke="#BE0A0A"/>
<path d="M917.246 496.399C917.246 512.626 900.35 525.78 879.508 525.78C858.665 525.78 855.288 518.212 858.104 496.399C855.288 473.25 858.665 467.018 879.508 467.018C900.35 467.018 917.246 480.172 917.246 496.399Z" fill="#1A7218"/>
<path d="M99.2464 496.399C99.2464 480.172 114.245 467.018 132.746 467.018C151.248 467.018 153.246 474.586 150.746 496.399C150.746 520.438 151.248 525.78 132.746 525.78C114.245 525.78 99.2464 512.626 99.2464 496.399Z" fill="#1A7218"/>
<ellipse cx="927.746" cy="515.096" rx="33.5" ry="29.381" fill="#1A7218"/>
<ellipse cx="61.2463" cy="541.806" rx="31" ry="31.1618" fill="#1A7218"/>
<path d="M915.246 527.561C915.246 544.771 901.367 558.722 884.246 558.722C867.126 558.722 854.746 548.038 858.246 529.341C855.746 507.973 867.126 496.399 884.246 496.399C901.367 496.399 915.246 510.351 915.246 527.561Z" fill="#1A7218"/>
<path d="M93.2463 533.793C93.2463 516.583 107.125 502.631 124.246 502.631C141.367 502.631 153.246 496.844 150.246 532.012C150.246 553.38 141.367 564.955 124.246 564.955C107.125 564.955 93.2463 551.003 93.2463 533.793Z" fill="#1A7218"/>
<path d="M915.196 558.722C915.196 575.933 901.317 589.884 884.196 589.884C852.246 589.884 858.246 601.904 858.247 558.722C853.746 527.561 867.075 527.561 884.196 527.561C901.317 527.561 915.196 541.512 915.196 558.722Z" fill="#1A7218"/>
<path d="M94.2463 564.955C94.2463 547.745 108.125 533.793 125.246 533.793C142.367 533.793 153.246 505.748 150.246 564.955C148.667 596.117 156.746 596.117 125.246 596.117C108.125 596.117 94.2463 582.165 94.2463 564.955Z" fill="#1A7218"/>
<ellipse cx="919.746" cy="561.393" rx="41.5" ry="32.9424" fill="#1A7218"/>
<ellipse cx="89.2463" cy="559.613" rx="31" ry="31.1617" fill="#1A7218"/>
<ellipse cx="950.246" cy="540.916" rx="33" ry="32.0521" fill="#1A7218"/>
<ellipse cx="93.2463" cy="504.412" rx="33" ry="32.0521" fill="#1A7218"/>
<rect x="505" y="3" width="84" height="35.1748" rx="3" fill="#BE0A0A" stroke="black" stroke-width="4"/>
<path d="M499 8.00001C499 3.58173 502.582 0 507 0H508C512.418 0 516 3.58172 516 8V72.1302C516 76.5485 512.418 80.1302 508 80.1302H507C502.582 80.1302 499 76.5485 499 72.1302V8.00001Z" fill="black"/>
</svg>
