<svg width="510" height="111" viewBox="0 0 510 111" fill="none" xmlns="http://www.w3.org/2000/svg">
<path d="M510 111H83V0H510V111Z" fill="#43A0CE"/>
<path d="M202.092 78H193.938L173.023 44.71V78H164.87V31.0781H173.023L194.003 64.4971V31.0781H202.092V78ZM209.504 60.2432C209.504 56.8271 210.181 53.7549 211.534 51.0264C212.888 48.2764 214.789 46.1709 217.238 44.71C219.688 43.2275 222.502 42.4863 225.682 42.4863C230.387 42.4863 234.2 44.001 237.122 47.0303C240.065 50.0596 241.655 54.0771 241.892 59.083L241.924 60.9199C241.924 64.3574 241.258 67.4297 239.926 70.1367C238.615 72.8438 236.725 74.9385 234.254 76.4209C231.805 77.9033 228.969 78.6445 225.746 78.6445C220.826 78.6445 216.884 77.0117 213.919 73.7461C210.976 70.459 209.504 66.0869 209.504 60.6299V60.2432ZM217.335 60.9199C217.335 64.5078 218.076 67.3223 219.559 69.3633C221.041 71.3828 223.104 72.3926 225.746 72.3926C228.389 72.3926 230.44 71.3613 231.901 69.2988C233.384 67.2363 234.125 64.2178 234.125 60.2432C234.125 56.7197 233.362 53.9268 231.837 51.8643C230.333 49.8018 228.281 48.7705 225.682 48.7705C223.125 48.7705 221.095 49.791 219.591 51.832C218.087 53.8516 217.335 56.8809 217.335 60.9199ZM268.092 68.5254C268.092 67.1289 267.512 66.0654 266.352 65.335C265.213 64.6045 263.312 63.96 260.647 63.4014C257.983 62.8428 255.76 62.1338 253.977 61.2744C250.066 59.3838 248.111 56.6445 248.111 53.0566C248.111 50.0488 249.379 47.5352 251.914 45.5156C254.449 43.4961 257.672 42.4863 261.582 42.4863C265.75 42.4863 269.112 43.5176 271.669 45.5801C274.247 47.6426 275.536 50.3174 275.536 53.6045H267.705C267.705 52.1006 267.146 50.8545 266.029 49.8662C264.912 48.8564 263.43 48.3516 261.582 48.3516C259.863 48.3516 258.456 48.749 257.36 49.5439C256.286 50.3389 255.749 51.4023 255.749 52.7344C255.749 53.9375 256.254 54.8721 257.264 55.5381C258.273 56.2041 260.314 56.8809 263.387 57.5684C266.459 58.2344 268.865 59.04 270.605 59.9854C272.367 60.9092 273.667 62.0264 274.505 63.3369C275.364 64.6475 275.794 66.2373 275.794 68.1064C275.794 71.2432 274.494 73.7891 271.895 75.7441C269.295 77.6777 265.89 78.6445 261.679 78.6445C258.821 78.6445 256.275 78.1289 254.041 77.0977C251.807 76.0664 250.066 74.6484 248.82 72.8438C247.574 71.0391 246.951 69.0947 246.951 67.0107H254.557C254.664 68.8584 255.362 70.2871 256.651 71.2969C257.94 72.2852 259.648 72.7793 261.775 72.7793C263.838 72.7793 265.406 72.3926 266.48 71.6191C267.555 70.8242 268.092 69.793 268.092 68.5254ZM281.176 60.2432C281.176 56.8271 281.853 53.7549 283.206 51.0264C284.56 48.2764 286.461 46.1709 288.91 44.71C291.359 43.2275 294.174 42.4863 297.354 42.4863C302.059 42.4863 305.872 44.001 308.794 47.0303C311.737 50.0596 313.327 54.0771 313.563 59.083L313.596 60.9199C313.596 64.3574 312.93 67.4297 311.598 70.1367C310.287 72.8438 308.396 74.9385 305.926 76.4209C303.477 77.9033 300.641 78.6445 297.418 78.6445C292.498 78.6445 288.556 77.0117 285.591 73.7461C282.647 70.459 281.176 66.0869 281.176 60.6299V60.2432ZM289.007 60.9199C289.007 64.5078 289.748 67.3223 291.23 69.3633C292.713 71.3828 294.775 72.3926 297.418 72.3926C300.061 72.3926 302.112 71.3613 303.573 69.2988C305.056 67.2363 305.797 64.2178 305.797 60.2432C305.797 56.7197 305.034 53.9268 303.509 51.8643C302.005 49.8018 299.953 48.7705 297.354 48.7705C294.797 48.7705 292.767 49.791 291.263 51.832C289.759 53.8516 289.007 56.8809 289.007 60.9199ZM330.031 34.6553V43.1309H336.187V48.9316H330.031V68.3965C330.031 69.7285 330.289 70.6953 330.805 71.2969C331.342 71.877 332.287 72.167 333.641 72.167C334.543 72.167 335.456 72.0596 336.38 71.8447V77.9033C334.597 78.3975 332.878 78.6445 331.224 78.6445C325.208 78.6445 322.2 75.3252 322.2 68.6865V48.9316H316.464V43.1309H322.2V34.6553H330.031ZM360.453 50.2852C359.422 50.1133 358.358 50.0273 357.263 50.0273C353.675 50.0273 351.258 51.4023 350.012 54.1523V78H342.181V43.1309H349.657L349.851 47.0303C351.741 44.001 354.362 42.4863 357.714 42.4863C358.831 42.4863 359.755 42.6367 360.485 42.9375L360.453 50.2852ZM362.773 60.2432C362.773 56.8271 363.45 53.7549 364.804 51.0264C366.157 48.2764 368.059 46.1709 370.508 44.71C372.957 43.2275 375.771 42.4863 378.951 42.4863C383.656 42.4863 387.47 44.001 390.392 47.0303C393.335 50.0596 394.925 54.0771 395.161 59.083L395.193 60.9199C395.193 64.3574 394.527 67.4297 393.195 70.1367C391.885 72.8438 389.994 74.9385 387.523 76.4209C385.074 77.9033 382.238 78.6445 379.016 78.6445C374.096 78.6445 370.153 77.0117 367.188 73.7461C364.245 70.459 362.773 66.0869 362.773 60.6299V60.2432ZM370.604 60.9199C370.604 64.5078 371.346 67.3223 372.828 69.3633C374.311 71.3828 376.373 72.3926 379.016 72.3926C381.658 72.3926 383.71 71.3613 385.171 69.2988C386.653 67.2363 387.395 64.2178 387.395 60.2432C387.395 56.7197 386.632 53.9268 385.106 51.8643C383.603 49.8018 381.551 48.7705 378.951 48.7705C376.395 48.7705 374.364 49.791 372.86 51.832C371.356 53.8516 370.604 56.8809 370.604 60.9199ZM421.361 68.5254C421.361 67.1289 420.781 66.0654 419.621 65.335C418.482 64.6045 416.581 63.96 413.917 63.4014C411.253 62.8428 409.029 62.1338 407.246 61.2744C403.336 59.3838 401.381 56.6445 401.381 53.0566C401.381 50.0488 402.648 47.5352 405.184 45.5156C407.719 43.4961 410.941 42.4863 414.852 42.4863C419.02 42.4863 422.382 43.5176 424.938 45.5801C427.517 47.6426 428.806 50.3174 428.806 53.6045H420.975C420.975 52.1006 420.416 50.8545 419.299 49.8662C418.182 48.8564 416.699 48.3516 414.852 48.3516C413.133 48.3516 411.726 48.749 410.63 49.5439C409.556 50.3389 409.019 51.4023 409.019 52.7344C409.019 53.9375 409.523 54.8721 410.533 55.5381C411.543 56.2041 413.584 56.8809 416.656 57.5684C419.729 58.2344 422.135 59.04 423.875 59.9854C425.637 60.9092 426.937 62.0264 427.774 63.3369C428.634 64.6475 429.063 66.2373 429.063 68.1064C429.063 71.2432 427.764 73.7891 425.164 75.7441C422.564 77.6777 419.159 78.6445 414.948 78.6445C412.091 78.6445 409.545 78.1289 407.311 77.0977C405.076 76.0664 403.336 74.6484 402.09 72.8438C400.844 71.0391 400.221 69.0947 400.221 67.0107H407.826C407.934 68.8584 408.632 70.2871 409.921 71.2969C411.21 72.2852 412.918 72.7793 415.045 72.7793C417.107 72.7793 418.676 72.3926 419.75 71.6191C420.824 70.8242 421.361 69.793 421.361 68.5254Z" fill="white"/>
<path d="M0 56L83 0L83.25 111L0 56Z" fill="#43A0CE"/>
</svg>
